<?xml version="1.0" encoding="UTF-8"?>
<svg width="320px" height="120px" viewBox="0 0 320 120" version="1.1" xmlns="http://www.w3.org/2000/svg" xmlns:xlink="http://www.w3.org/1999/xlink">
    <!-- Generator: Sketch 50.2 (55047) - http://www.bohemiancoding.com/sketch -->
    <title>activitiesbutton</title>
    <desc>Created with Sketch.</desc>
    <defs></defs>
    <g id="Welcome" stroke="none" stroke-width="1" fill="none" fill-rule="evenodd">
        <g id="Mobile-Portrait-Copy-2" transform="translate(0.000000, -904.000000)">
            <g id="activitiesbutton" transform="translate(0.000000, 904.000000)">
                <rect id="Rectangle-5" fill-opacity="0.700294384" fill="#000000" x="160" y="0" width="160" height="120"></rect>
                <text id="Activities" font-family="Futura-Medium, Futura" font-size="24" font-weight="400" fill="#FFFFFF">
                    <tspan x="175" y="65">Activities</tspan>
                </text>
                <g id="Group-Copy">
                    <rect id="Rectangle-4" fill-opacity="0.702190897" fill="#000000" opacity="0.975390625" x="0" y="0" width="160" height="120"></rect>
                    <path d="M104,115.5 L98.5,114.5 L44.5,113.5 L26.5,106.5 L26.5,97.5 L16,95 L16,87.5 L18.5,87.5 L18.5,92.5 L20,92.5 L21,84 L23,84 L25,87.5 L28.5,89 L45.5,75 L51.5,59 C51.5705853,56.2107053 52.0705853,53.2107053 53,50 C54.394122,45.1839421 54.4805635,42.7385179 57,40 C58.6796243,38.1743214 60.6796243,37.0076547 63,36.5 L71.5,33 C71.8333333,31.7777778 72,30.7777778 72,30 C72,29.2222222 71.8333333,28.5555556 71.5,28 C69.6802265,25.2711961 68.6802265,22.1045295 68.5,18.5 C68.2296603,13.0932058 68.7270965,9.24800042 70.5,6.5 C71.5150172,4.92672339 72.692172,3.84379931 74.2561477,3.20543921 C75.4239268,2.72879269 76.8073667,2.5 78.5,2.5 C79.4443548,2.5 80.3495002,2.67064904 81.2154363,3.01194712 C82.2518055,3.42041933 83.6799934,4.58310362 85.5,6.5 C87.4149677,11.4376206 88.248301,15.4376206 88,18.5 C87.6275485,23.0935691 85.515676,26.3056361 85,28 C84.484324,29.6943639 84.5,28.8333333 84.5,30 C84.5,30.7777778 84.6666667,31.7777778 85,33 L93.5,36.5 C95.7329277,37.2328311 97.8995943,38.8994977 100,41.5 C102.100406,44.1005023 103.100406,47.2671689 103,51 L104,59 L110,75 L125,90 L130,90 L134,87.5 L135.5,89 L135.5,95 L138,94 L139,91 L141,92.5 L139,97.5 L130,99.5 L127,98.5 L128.5,104 L122,112 L116.5,114.5 L104,115.5 Z" id="Path-18" stroke="#FFFFFF" stroke-width="0.5"></path>
                    <polygon id="Path-19" stroke="#FFFFFF" stroke-width="0.5" points="34.5 93 58.5 94 60.5 81.5 63 78.5 59.5 59 54.5 78.5 51.5 83"></polygon>
                    <polygon id="Path-20" stroke="#FFFFFF" stroke-width="0.5" points="94.5 57 90.5 77.5 93.5 81 97.5 93 121 94.5 102.5 83 100 78.5"></polygon>
                    <path d="M63,78.5 L90,78 L94,57 L92,50 L90.5,36 L87,34 C86.9821971,39.4757562 86.8155305,43.4757562 86.5,46 C86.1844695,48.5242438 85.5178029,51.1909105 84.5,54 C81.5,55 79.1666667,55.5 77.5,55.5 C75.8333333,55.5 73.8333333,55 71.5,54 C70.0835075,51.3344946 69.2501742,49.167828 69,47.5 C68.7498258,45.832172 68.5831591,41.332172 68.5,34 L65,36 L63,51 L60,60.5 L63,78.5 Z" id="Path-22" stroke="#FFFFFF" stroke-width="0.5"></path>
                    <path d="M73.5,105.5 L72,114 L93.5,114 L97,112.5 L103.5,115.5 C105.656031,115.734046 105.989364,114.734046 104.5,112.5 C102.265954,109.148931 100.357626,108.69661 98.5,108 C96.6423735,107.30339 95.2727439,108.924248 92.5,108 C90.6515041,107.383835 89.1515041,106.217168 88,104.5 C86.8160921,103.308832 85.3160921,102.808832 83.5,103 C81.6839079,103.191168 80.0172412,104.024501 78.5,105.5 L73.5,105.5 Z" id="Path-23" stroke="#FFFFFF" stroke-width="0.5"></path>
                    <polygon id="Path-24" stroke="#FFFFFF" stroke-width="0.5" points="78.5 105.5 74 102.5 69.5 104 74 105.5"></polygon>
                    <polygon id="Path-25" stroke="#FFFFFF" stroke-width="0.5" points="35 93 26.5 97.5 26.5 106.5 44.5 113.5 72 113.5 73.5 105.5"></polygon>
                    <path d="M120.5,94.5 L127,98.5 L128.5,104 L122,112 L116.5,114.5 L105.5,115.5 C104.742493,113.019004 103.90916,111.352337 103,110.5 C102.09084,109.647663 100.257507,108.814329 97.5,108 C94.9814883,108.392595 92.8148216,108.225929 91,107.5 C89.1851784,106.774071 88.0185117,105.607405 87.5,104 L120.5,94.5 Z" id="Path-26" stroke="#FFFFFF" stroke-width="0.5"></path>
                    <path d="M84.5,5 L87,5 L89,7.5 L91.5,31 L93,33 L94.5,31 L94.5,29 L96.5,31 L97.5,33 L95.5,35.5 L93,36.5 L85.5,33 L85.5,26.5 C87.3340613,22.4323189 88.1673947,18.5989855 88,15 C87.8326053,11.4010145 86.6659387,8.06768115 84.5,5 Z" id="Path-29" stroke="#FFFFFF" stroke-width="0.5"></path>
                    <path d="M87,11 C83.4286521,9.02732723 79.933969,8.61066056 76.5159506,9.75 C73.0979323,10.8893394 70.4259488,13.3060061 68.5,17 C66.2677135,13.0480598 65.9343801,10.2147265 67.5,8.5 C69.0656199,6.78527349 73.0656199,4.78527349 79.5,2.5 C81.9781722,3.76700476 83.6448389,4.76700476 84.5,5.5 C85.3551611,6.23299524 86.1884944,8.06632857 87,11 Z" id="Path-30" stroke="#FFFFFF" stroke-width="0.5"></path>
                    <path d="M0.5,57.5 L51.5,57.5" id="Path-31" stroke="#FFFFFF" stroke-width="0.5"></path>
                    <path d="M104,56.5 L159.5,56.5" id="Path-32" stroke="#FFFFFF" stroke-width="0.5"></path>
                    <polyline id="Path-21" stroke="#FFFFFF" stroke-width="0.3" points="63 81 91.5 84 62 88.5 91.5 87.5 78.5 90.5 94 90.5 68 94"></polyline>
                </g>
            </g>
        </g>
    </g>
</svg>