<?xml version="1.0" encoding="UTF-8"?>
<svg width="623px" height="75px" viewBox="0 0 623 75" version="1.1" xmlns="http://www.w3.org/2000/svg" xmlns:xlink="http://www.w3.org/1999/xlink">
    <!-- Generator: Sketch 50.2 (55047) - http://www.bohemiancoding.com/sketch -->
    <title>activitiestablet</title>
    <desc>Created with Sketch.</desc>
    <defs></defs>
    <g id="Symbols" stroke="none" stroke-width="1" fill="none" fill-rule="evenodd">
        <g id="activitiestablet">
            <rect id="Rectangle-10-Copy-8" fill-opacity="0.540449502" fill="#000000" x="0" y="0" width="623" height="75"></rect>
            <g id="activities">
                <rect id="Rectangle-Copy" fill-opacity="0.541213768" fill="#000000" fill-rule="evenodd" x="0" y="0" width="197" height="75"></rect>
                <g stroke-width="1" fill-rule="evenodd" transform="translate(98.500000, 0.000000)" id="Rectangle-5">
                    <rect x="0" y="0" width="98.5" height="75"></rect>
                </g>
                <g id="yogagirl" stroke-width="1" fill-rule="evenodd">
                    <rect id="Rectangle-4" opacity="0.975390625" x="0" y="0" width="98.5" height="75"></rect>
                    <path d="M64.025,72.1875 L60.6390625,71.5625 L27.3953125,70.9375 L16.3140625,66.5625 L16.3140625,60.9375 L9.85,59.375 L9.85,54.6875 L11.3890625,54.6875 L11.3890625,57.8125 L12.3125,57.8125 L12.928125,52.5 L14.159375,52.5 L15.390625,54.6875 L17.5453125,55.625 L28.0109375,46.875 L31.7046875,36.875 C31.7481416,35.1316908 32.0559541,33.2566908 32.628125,31.25 C33.4863814,28.2399638 33.5395969,26.7115737 35.090625,25 C36.1246437,23.8589509 37.3558937,23.1297842 38.784375,22.8125 L44.0171875,20.625 C44.2223958,19.8611111 44.325,19.2361111 44.325,18.75 C44.325,18.2638889 44.2223958,17.8472222 44.0171875,17.5 C42.8968894,15.7944976 42.2812644,13.8153309 42.1703125,11.5625 C42.0038846,8.18325362 42.3101188,5.78000026 43.4015625,4.0625 C44.0264324,3.07920212 44.7511184,2.40237457 45.7139409,2.0033995 C46.4328549,1.70549543 47.2845351,1.5625 48.3265625,1.5625 C48.9079309,1.5625 49.4651611,1.66915565 49.998253,1.88246695 C50.6362677,2.13776208 51.5154959,2.86443976 52.6359375,4.0625 C53.8148395,7.14851289 54.3278603,9.64851289 54.175,11.5625 C53.9457095,14.4334807 52.645588,16.4410226 52.328125,17.5 C52.010662,18.5589774 52.0203125,18.0208333 52.0203125,18.75 C52.0203125,19.2361111 52.1229167,19.8611111 52.328125,20.625 L57.5609375,22.8125 C58.9355836,23.2705194 60.2694378,24.3121861 61.5625,25.9375 C62.8555622,27.5628139 63.4711872,29.5419806 63.409375,31.875 L64.025,36.875 L67.71875,46.875 L76.953125,56.25 L80.03125,56.25 L82.49375,54.6875 L83.4171875,55.625 L83.4171875,59.375 L84.95625,58.75 L85.571875,56.875 L86.803125,57.8125 L85.571875,60.9375 L80.03125,62.1875 L78.184375,61.5625 L79.1078125,65 L75.10625,70 L71.7203125,71.5625 L64.025,72.1875 Z" id="Path-18" stroke="#FFFFFF" stroke-width="0.5"></path>
                    <polygon id="Path-19" stroke="#FFFFFF" stroke-width="0.5" points="21.2390625 58.125 36.0140625 58.75 37.2453125 50.9375 38.784375 49.0625 36.6296875 36.875 33.5515625 49.0625 31.7046875 51.875"></polygon>
                    <polygon id="Path-20" stroke="#FFFFFF" stroke-width="0.5" points="58.1765625 35.625 55.7140625 48.4375 57.5609375 50.625 60.0234375 58.125 74.490625 59.0625 63.1015625 51.875 61.5625 49.0625"></polygon>
                    <path d="M38.784375,49.0625 L55.40625,48.75 L57.86875,35.625 L56.6375,31.25 L55.7140625,22.5 L53.559375,21.25 C53.5484151,24.6723476 53.4458109,27.1723476 53.2515625,28.75 C53.0573141,30.3276524 52.6468974,31.994319 52.0203125,33.75 C50.1734375,34.375 48.7369792,34.6875 47.7109375,34.6875 C46.6848958,34.6875 45.4536458,34.375 44.0171875,33.75 C43.1451593,32.0840592 42.6321385,30.7298925 42.478125,29.6875 C42.3241115,28.6451075 42.2215073,25.8326075 42.1703125,21.25 L40.015625,22.5 L38.784375,31.875 L36.9375,37.8125 L38.784375,49.0625 Z" id="Path-22" stroke="#FFFFFF" stroke-width="0.5"></path>
                    <path d="M45.2484375,65.9375 L44.325,71.25 L57.5609375,71.25 L59.715625,70.3125 L63.7171875,72.1875 C65.0444939,72.3337788 65.2497023,71.7087788 64.3328125,70.3125 C62.9574778,68.2180817 61.7826638,67.9353812 60.6390625,67.5 C59.4954612,67.0646188 58.6522829,68.077655 56.9453125,67.5 C55.8073322,67.1148967 54.8838947,66.38573 54.175,65.3125 C53.4461567,64.5680203 52.5227192,64.2555203 51.4046875,64.375 C50.2866558,64.4944797 49.2606141,65.0153131 48.3265625,65.9375 L45.2484375,65.9375 Z" id="Path-23" stroke="#FFFFFF" stroke-width="0.5"></path>
                    <polygon id="Path-24" stroke="#FFFFFF" stroke-width="0.5" points="48.3265625 65.9375 45.55625 64.0625 42.7859375 65 45.55625 65.9375"></polygon>
                    <polygon id="Path-25" stroke="#FFFFFF" stroke-width="0.5" points="21.546875 58.125 16.3140625 60.9375 16.3140625 66.5625 27.3953125 70.9375 44.325 70.9375 45.2484375 65.9375"></polygon>
                    <path d="M74.1828125,59.0625 L78.184375,61.5625 L79.1078125,65 L75.10625,70 L71.7203125,71.5625 L64.9484375,72.1875 C64.4820973,70.6368774 63.9690764,69.5952107 63.409375,69.0625 C62.8496736,68.5297893 61.7210277,68.0089559 60.0234375,67.5 C58.4729787,67.7453721 57.1391246,67.6412054 56.021875,67.1875 C54.9046254,66.7337946 54.1863963,66.0046279 53.8671875,65 L74.1828125,59.0625 Z" id="Path-26" stroke="#FFFFFF" stroke-width="0.5"></path>
                    <path d="M52.0203125,3.125 L53.559375,3.125 L54.790625,4.6875 L56.3296875,19.375 L57.253125,20.625 L58.1765625,19.375 L58.1765625,18.125 L59.4078125,19.375 L60.0234375,20.625 L58.7921875,22.1875 L57.253125,22.8125 L52.6359375,20.625 L52.6359375,16.5625 C53.7650315,14.0201993 54.2780523,11.6243659 54.175,9.375 C54.0719477,7.12563405 53.3537185,5.04230072 52.0203125,3.125 Z" id="Path-29" stroke="#FFFFFF" stroke-width="0.5"></path>
                    <path d="M53.559375,6.875 C51.3607639,5.64207952 49.2093496,5.38166285 47.1051321,6.09375 C45.0009146,6.80583715 43.3559747,8.31625382 42.1703125,10.625 C40.7960611,8.1550374 40.5908528,6.38420407 41.5546875,5.3125 C42.5185222,4.24079593 44.9810222,2.99079593 48.9421875,1.5625 C50.4678123,2.35437798 51.4938539,2.97937798 52.0203125,3.4375 C52.5467711,3.89562202 53.0597919,5.04145536 53.559375,6.875 Z" id="Path-30" stroke="#FFFFFF" stroke-width="0.5"></path>
                    <path d="M0.3078125,35.9375 L31.7046875,35.9375" id="Path-31" stroke="#FFFFFF" stroke-width="0.5"></path>
                    <polyline id="Path-32" stroke="#FFFFFF" stroke-width="0.5" points="64.025 35.3125 98.1921875 35.3125 196.919688 35.3125"></polyline>
                    <polyline id="Path-21" stroke="#FFFFFF" stroke-width="0.3" points="38.784375 50.625 56.3296875 52.5 38.16875 55.3125 56.3296875 54.6875 48.3265625 56.5625 57.86875 56.5625 41.8625 58.75"></polyline>
                </g>
                <path d="" id="Path-64" stroke="#979797" stroke-width="1"></path>
            </g>
            <text id="Activities-Copy-2" font-family="Futura-Bold, Futura" font-size="36" font-weight="bold" fill="#FFFFFF">
                <tspan x="331.726" y="47">Activities</tspan>
            </text>
            <path d="M197,35.5 L311.597902,35.5" id="Path-78-Copy-2" stroke="#979797"></path>
            <path d="M537.401869,35.5 L622.495084,35.5" id="Path-79-Copy-2" stroke="#979797"></path>
        </g>
    </g>
</svg>