<?xml version="1.0" encoding="UTF-8"?>
<svg width="775px" height="93px" viewBox="0 0 775 93" version="1.1" xmlns="http://www.w3.org/2000/svg" xmlns:xlink="http://www.w3.org/1999/xlink">
    <!-- Generator: Sketch 50.2 (55047) - http://www.bohemiancoding.com/sketch -->
    <title>activitiesdesktop</title>
    <desc>Created with Sketch.</desc>
    <defs></defs>
    <g id="Symbols" stroke="none" stroke-width="1" fill="none" fill-rule="evenodd">
        <g id="activitiesdesktop">
            <g id="activitiestablet-copy">
                <rect id="Rectangle-10-Copy-8" fill-opacity="0.540449502" fill="#000000" x="0" y="0" width="775" height="93"></rect>
                <g id="activities">
                    <rect id="Rectangle-Copy" fill-opacity="0.541213768" fill="#000000" fill-rule="evenodd" x="0" y="0" width="245.045452" height="93.1733224"></rect>
                    <g stroke-width="1" fill-rule="evenodd" transform="translate(122.522726, 0.000000)" id="Rectangle-5">
                        <rect x="0" y="0" width="122.522726" height="93.1733224"></rect>
                    </g>
                    <g id="yogagirl" stroke-width="1" fill-rule="evenodd">
                        <rect id="Rectangle-4" opacity="0.975390625" x="0" y="0" width="122.522726" height="93.1733224"></rect>
                        <path d="M79.6397719,89.6793228 L75.4280532,88.9028785 L34.0766332,88.1264341 L20.2928265,82.6913236 L20.2928265,75.7033245 L12.2522726,73.7622136 L12.2522726,67.9388809 L14.1666902,67.9388809 L14.1666902,71.8211027 L15.3153407,71.8211027 L16.0811078,65.2213257 L17.6126419,65.2213257 L19.1441759,67.9388809 L21.8243606,69.1035475 L34.8424002,58.2333265 L39.4370024,45.8102169 C39.4910543,43.6444847 39.8739379,41.3151517 40.585653,38.8222177 C41.6532257,35.0828167 41.7194197,33.1840809 43.6487211,31.0577741 C44.9349221,29.6402363 46.4664562,28.7343845 48.2433234,28.3402189 L54.7523432,25.6226637 C55.0075989,24.6736761 55.1352267,23.8972318 55.1352267,23.2933306 C55.1352267,22.6894294 55.0075989,22.1717999 54.7523432,21.7404419 C53.3588206,19.6216775 52.5930536,17.1629371 52.4550421,14.3642205 C52.2480248,10.1661457 52.6289451,7.18055771 53.9865761,5.0468883 C54.7638428,3.82532656 55.6652692,2.98449627 56.8629102,2.48884517 C57.757157,2.11875567 58.8165497,1.94111088 60.1127124,1.94111088 C60.8358682,1.94111088 61.5289988,2.07361037 62.192104,2.33860933 C62.9857214,2.65576527 64.0793806,3.55852493 65.4730817,5.0468883 C66.9395008,8.88067595 67.57764,11.9864534 67.3874993,14.3642205 C67.1022882,17.9308713 65.4850858,20.4248626 65.0901982,21.7404419 C64.6953105,23.0560212 64.7073147,22.3874789 64.7073147,23.2933306 C64.7073147,23.8972318 64.8349425,24.6736761 65.0901982,25.6226637 L71.599218,28.3402189 C73.3091204,28.9092214 74.9682823,30.2032954 76.5767037,32.2224407 C78.1851252,34.241586 78.9508922,36.7003264 78.8740049,39.598662 L79.6397719,45.8102169 L84.2343741,58.2333265 L95.7208797,69.8799918 L99.5497149,69.8799918 L102.612783,67.9388809 L103.761434,69.1035475 L103.761434,73.7622136 L105.675851,72.9857692 L106.441618,70.6564362 L107.973152,71.8211027 L106.441618,75.7033245 L99.5497149,77.2562132 L97.2524138,76.4797688 L98.4010643,80.7502128 L93.4235786,86.9617676 L89.2118599,88.9028785 L79.6397719,89.6793228 Z" id="Path-18" stroke="#FFFFFF" stroke-width="0.621990369"></path>
                        <polygon id="Path-19" stroke="#FFFFFF" stroke-width="0.621990369" points="26.4189628 72.2093249 44.7973717 72.9857692 46.3289058 63.2802148 48.2433234 60.9508817 45.5631387 45.8102169 41.7343035 60.9508817 39.4370024 64.4448813"></polygon>
                        <polygon id="Path-20" stroke="#FFFFFF" stroke-width="0.621990369" points="72.364985 44.2573281 69.3019169 60.1744374 71.599218 62.8919926 74.6622861 72.2093249 92.6578115 73.3739914 78.4911213 64.4448813 76.5767037 60.9508817"></polygon>
                        <path d="M48.2433234,60.9508817 L68.9190334,60.5626596 L71.9821015,44.2573281 L70.4505674,38.8222177 L69.3019169,27.9519967 L66.6217323,26.399108 C66.6080994,30.650728 66.4804716,33.7565054 66.2388487,35.7164403 C65.9972259,37.6763751 65.4867145,39.7468934 64.7073147,41.9279951 C62.4100136,42.7044394 60.6232238,43.0926616 59.3469454,43.0926616 C58.070667,43.0926616 56.5391329,42.7044394 54.7523432,41.9279951 C53.6676399,39.8583785 53.0295007,38.1760824 52.8379256,36.8811068 C52.6463504,35.5861312 52.5187226,32.0921316 52.4550421,26.399108 L49.7748574,27.9519967 L48.2433234,39.598662 L45.9460222,46.9748834 L48.2433234,60.9508817 Z" id="Path-22" stroke="#FFFFFF" stroke-width="0.621990369"></path>
                        <path d="M56.2838773,81.9148793 L55.1352267,88.5146563 L71.599218,88.5146563 L74.2794026,87.3499898 L79.2568884,89.6793228 C80.9079057,89.8610466 81.1631613,89.0846023 80.0226554,87.3499898 C78.3118965,84.748071 76.8505623,84.396869 75.4280532,83.8559902 C74.0055441,83.3151113 72.9567268,84.5736173 70.833451,83.8559902 C69.4179337,83.3775721 68.2692832,82.4717204 67.3874993,81.1384349 C66.4809017,80.2135596 65.3322511,79.8253374 63.9415476,79.9737684 C62.5508441,80.1221994 61.2745657,80.7692364 60.1127124,81.9148793 L56.2838773,81.9148793 Z" id="Path-23" stroke="#FFFFFF" stroke-width="0.621990369"></path>
                        <polygon id="Path-24" stroke="#FFFFFF" stroke-width="0.621990369" points="60.1127124 81.9148793 56.6667608 79.5855462 53.2208091 80.7502128 56.6667608 81.9148793"></polygon>
                        <polygon id="Path-25" stroke="#FFFFFF" stroke-width="0.621990369" points="26.8018463 72.2093249 20.2928265 75.7033245 20.2928265 82.6913236 34.0766332 88.1264341 55.1352267 88.1264341 56.2838773 81.9148793"></polygon>
                        <path d="M92.274928,73.3739914 L97.2524138,76.4797688 L98.4010643,80.7502128 L93.4235786,86.9617676 L89.2118599,88.9028785 L80.7884224,89.6793228 C80.2083486,87.7529674 79.5702094,86.4588935 78.8740049,85.7971011 C78.1778003,85.1353087 76.7738941,84.4882717 74.6622861,83.8559902 C72.7336929,84.1608186 71.074531,84.0314112 69.6848004,83.467768 C68.2950698,82.9041248 67.4016749,81.998273 67.0046158,80.7502128 L92.274928,73.3739914 Z" id="Path-26" stroke="#FFFFFF" stroke-width="0.621990369"></path>
                        <path d="M64.7073147,3.88222177 L66.6217323,3.88222177 L68.1532663,5.82333265 L70.0676839,24.069775 L71.2163345,25.6226637 L72.364985,24.069775 L72.364985,22.5168863 L73.8965191,24.069775 L74.6622861,25.6226637 L73.1307521,27.5637745 L71.2163345,28.3402189 L65.4730817,25.6226637 L65.4730817,20.5757754 C66.8775454,17.4174473 67.5156846,14.4410773 67.3874993,11.6466653 C67.259314,8.85225332 66.3659191,6.26410547 64.7073147,3.88222177 Z" id="Path-29" stroke="#FFFFFF" stroke-width="0.621990369"></path>
                        <path d="M66.6217323,8.54088789 C63.8869117,7.00921725 61.2107986,6.68569877 58.5933928,7.57033245 C55.9759871,8.45496612 53.9298701,10.3313733 52.4550421,13.199554 C50.7456306,10.1310924 50.4903749,7.93116672 51.689275,6.599777 C52.8881751,5.26838729 55.9512433,3.71549858 60.8784795,1.94111088 C62.7761821,2.92486958 64.0524605,3.70131393 64.7073147,4.27044394 C65.3621689,4.83957396 66.0003081,6.26305527 66.6217323,8.54088789 Z" id="Path-30" stroke="#FFFFFF" stroke-width="0.621990369"></path>
                        <path d="M0.382883519,44.6455503 L39.4370024,44.6455503" id="Path-31" stroke="#FFFFFF" stroke-width="0.621990369"></path>
                        <polyline id="Path-32" stroke="#FFFFFF" stroke-width="0.621990369" points="79.6397719 43.869106 122.139842 43.869106 244.945553 43.869106"></polyline>
                        <polyline id="Path-21" stroke="#FFFFFF" stroke-width="0.5" points="48.2433234 62.8919926 70.0676839 65.2213257 47.4775563 68.7153253 70.0676839 67.9388809 60.1127124 70.268214 71.9821015 70.268214 52.0721585 72.9857692"></polyline>
                    </g>
                    <path d="" id="Path-64" stroke="#979797" stroke-width="1.24398074"></path>
                </g>
                <text id="Activities-Copy-2" font-family="Futura-Bold, Futura" font-size="44.7833066" font-weight="bold" fill="#FFFFFF">
                    <tspan x="412.660754" y="59.4">Activities</tspan>
                </text>
                <path d="M245.064205,44.02 L387.621788,44.02" id="Path-78-Copy-2" stroke="#979797" stroke-width="1.24398074"></path>
                <path d="M668.517574,44.02 L774.371894,44.02" id="Path-79-Copy-2" stroke="#979797" stroke-width="1.24398074"></path>
            </g>
        </g>
    </g>
</svg>