<?xml version="1.0" encoding="UTF-8"?>
<svg width="775px" height="93px" viewBox="0 0 775 93" version="1.1" xmlns="http://www.w3.org/2000/svg" xmlns:xlink="http://www.w3.org/1999/xlink">
    <!-- Generator: Sketch 50.2 (55047) - http://www.bohemiancoding.com/sketch -->
    <title>activitiesdesktop-active</title>
    <desc>Created with Sketch.</desc>
    <defs></defs>
    <g id="Symbols" stroke="none" stroke-width="1" fill="none" fill-rule="evenodd">
        <g id="activitiesdesktop-active">
            <g id="activities-active-copy">
                <rect id="Rectangle-10-Copy-9" fill-opacity="0.540449502" fill="#000000" x="0" y="0" width="775" height="93"></rect>
                <g id="activities-copy-3">
                    <rect id="Rectangle-Copy" fill-opacity="0.541213768" fill="#000000" x="0" y="0" width="245.064205" height="93"></rect>
                    <g id="activities" transform="translate(122.532103, 0.000000)">
                        <rect id="Rectangle-5" x="0" y="0" width="122.532103" height="93"></rect>
                    </g>
                    <g id="yogagirl">
                        <rect id="Rectangle-4" opacity="0.975390625" x="0" y="0" width="122.532103" height="93"></rect>
                        <path d="M79.6458668,89.5125 L75.4338257,88.7375 L34.0792411,87.9625 L20.2943795,82.5375 L20.2943795,75.5625 L12.2532103,73.625 L12.2532103,67.8125 L14.1677744,67.8125 L14.1677744,71.6875 L15.3165128,71.6875 L16.0823385,65.1 L17.6139898,65.1 L19.1456411,67.8125 L21.8260308,68.975 L34.8450667,58.125 L39.4400206,45.725 C39.4940766,43.5632966 39.8769894,41.2382966 40.588759,38.75 C41.6564134,35.0175551 41.7226125,33.1223514 43.6520616,31 C44.938361,29.5850991 46.4700123,28.6809324 48.2470154,28.2875 L54.7565334,25.575 C55.0118086,24.6277778 55.1394462,23.8527778 55.1394462,23.25 C55.1394462,22.6472222 55.0118086,22.1305556 54.7565334,21.7 C53.3629042,19.585177 52.5970785,17.1310103 52.4590565,14.3375 C52.2520234,10.1472345 52.6329728,7.16720032 53.9907078,5.0375 C54.7680339,3.81821063 55.6695293,2.97894447 56.867262,2.48421538 C57.7615772,2.11481433 58.8210509,1.9375 60.1173129,1.9375 C60.840524,1.9375 61.5337076,2.069753 62.1968636,2.33425901 C62.9905417,2.65082498 64.0842847,3.55190531 65.4780924,5.0375 C66.9446238,8.86415599 67.5828118,11.964156 67.3926565,14.3375 C67.1074236,17.897516 65.4900974,20.386868 65.0951796,21.7 C64.7002617,23.013132 64.7122668,22.3458333 64.7122668,23.25 C64.7122668,23.8527778 64.8399044,24.6277778 65.0951796,25.575 L71.6046975,28.2875 C73.3147308,28.8554441 74.9740197,30.1471107 76.5825642,32.1625 C78.1911087,34.1778893 78.9569344,36.6320559 78.8800411,39.525 L79.6458668,45.725 L84.2408206,58.125 L95.7282053,69.75 L99.5573335,69.75 L102.620636,67.8125 L103.769374,68.975 L103.769374,73.625 L105.683939,72.85 L106.449764,70.525 L107.981416,71.6875 L106.449764,75.5625 L99.5573335,77.1125 L97.2598565,76.3375 L98.408595,80.6 L93.4307283,86.8 L89.2186873,88.7375 L79.6458668,89.5125 Z" id="Path-18" stroke="#A4E7EA" stroke-width="0.621990369"></path>
                        <polygon id="Path-19" stroke="#A4E7EA" stroke-width="0.621990369" points="26.4209847 72.075 44.8008001 72.85 46.3324513 63.1625 48.2470154 60.8375 45.5666257 45.725 41.7374975 60.8375 39.4400206 64.325"></polygon>
                        <polygon id="Path-20" stroke="#A4E7EA" stroke-width="0.621990369" points="72.3705232 44.175 69.3072206 60.0625 71.6046975 62.775 74.6680001 72.075 92.6649027 73.2375 78.4971283 64.325 76.5825642 60.8375"></polygon>
                        <path d="M48.2470154,60.8375 L68.9243078,60.45 L71.9876104,44.175 L70.4559591,38.75 L69.3072206,27.9 L66.6268309,26.35 C66.613197,30.5937111 66.4855594,33.6937111 66.243918,35.65 C66.0022767,37.6062889 65.4917263,39.6729556 64.7122668,41.85 C62.4147898,42.625 60.6278633,43.0125 59.3514873,43.0125 C58.0751112,43.0125 56.5434599,42.625 54.7565334,41.85 C53.6717472,39.7842334 53.0335591,38.1050667 52.8419693,36.8125 C52.6503795,35.5199333 52.5227419,32.0324333 52.4590565,26.35 L49.7786667,27.9 L48.2470154,39.525 L45.9495385,46.8875 L48.2470154,60.8375 Z" id="Path-22" stroke="#A4E7EA" stroke-width="0.621990369"></path>
                        <path d="M56.2881847,81.7625 L55.1394462,88.35 L71.6046975,88.35 L74.2850873,87.1875 L79.262954,89.5125 C80.9140976,89.6938858 81.1693728,88.9188858 80.0287796,87.1875 C78.3178898,84.5904214 76.8564437,84.2398727 75.4338257,83.7 C74.0112078,83.1601273 72.9623102,84.4162922 70.8388719,83.7 C69.4232463,83.2224719 68.2745079,82.3183052 67.3926565,80.9875 C66.4859895,80.0643451 65.337251,79.6768451 63.9464411,79.825 C62.5556312,79.9731549 61.2792551,80.6189882 60.1173129,81.7625 L56.2881847,81.7625 Z" id="Path-23" stroke="#A4E7EA" stroke-width="0.621990369"></path>
                        <polygon id="Path-24" stroke="#A4E7EA" stroke-width="0.621990369" points="60.1173129 81.7625 56.6710975 79.4375 53.2248821 80.6 56.6710975 81.7625"></polygon>
                        <polygon id="Path-25" stroke="#A4E7EA" stroke-width="0.621990369" points="26.8038975 72.075 20.2943795 75.5625 20.2943795 82.5375 34.0792411 87.9625 55.1394462 87.9625 56.2881847 81.7625"></polygon>
                        <path d="M92.2819899,73.2375 L97.2598565,76.3375 L98.408595,80.6 L93.4307283,86.8 L89.2186873,88.7375 L80.7946052,89.5125 C80.214487,87.589728 79.5762989,86.2980613 78.8800411,85.6375 C78.1837833,84.9769387 76.7797697,84.3311053 74.6680001,83.7 C72.7392593,84.0042614 71.0799704,83.8750947 69.6901334,83.3125 C68.3002965,82.7499053 67.4068332,81.8457386 67.0097437,80.6 L92.2819899,73.2375 Z" id="Path-26" stroke="#A4E7EA" stroke-width="0.621990369"></path>
                        <path d="M64.7122668,3.875 L66.6268309,3.875 L68.1584821,5.8125 L70.0730462,24.025 L71.2217847,25.575 L72.3705232,24.025 L72.3705232,22.475 L73.9021745,24.025 L74.6680001,25.575 L73.1363488,27.5125 L71.2217847,28.2875 L65.4780924,25.575 L65.4780924,20.5375 C66.8826636,17.3850471 67.5208516,14.4142138 67.3926565,11.625 C67.2644614,8.83578622 66.3709981,6.25245289 64.7122668,3.875 Z" id="Path-29" stroke="#A4E7EA" stroke-width="0.621990369"></path>
                        <path d="M66.6268309,8.525 C63.891801,6.9961786 61.2154831,6.67326193 58.597877,7.55625 C55.9802709,8.43923807 53.9339974,10.3121547 52.4590565,13.175 C50.7495142,10.1122464 50.494239,7.91641304 51.6932308,6.5875 C52.8922227,5.25858696 55.9555252,3.70858696 60.8831385,1.9375 C62.7809864,2.91942869 64.0573624,3.69442869 64.7122668,4.2625 C65.3671711,4.83057131 66.0053591,6.25140464 66.6268309,8.525 Z" id="Path-30" stroke="#A4E7EA" stroke-width="0.621990369"></path>
                        <path d="M0.382912821,44.5625 L39.4400206,44.5625" id="Path-31" stroke="#A4E7EA" stroke-width="0.621990369"></path>
                        <polyline id="Path-32" stroke="#A4E7EA" stroke-width="0.621990369" points="79.6458668 43.7875 122.14919 43.7875 244.964299 43.7875"></polyline>
                        <polyline id="Path-21" stroke="#A4E7EA" stroke-width="0.5" points="48.2470154 62.775 70.0730462 65.1 47.4811898 68.5875 70.0730462 67.8125 60.1173129 70.1375 71.9876104 70.1375 52.0761437 72.85"></polyline>
                    </g>
                    <path d="" id="Path-64" stroke="#979797" stroke-width="1.24398074"></path>
                </g>
                <text id="Activities" font-family="Futura-Bold, Futura" font-size="44.7833066" font-weight="bold" fill="#A4E7EA">
                    <tspan x="412.660754" y="59.4">Activities</tspan>
                </text>
                <path d="M245.064205,44.02 L387.621788,44.02" id="Path-78-Copy-3" stroke="#A4E7EA" stroke-width="1.24398074"></path>
                <path d="M668.517574,44.02 L774.371894,44.02" id="Path-79-Copy-3" stroke="#A4E7EA" stroke-width="1.24398074"></path>
            </g>
        </g>
    </g>
</svg>