<?xml version="1.0" encoding="UTF-8"?>
<svg width="320px" height="120px" viewBox="0 0 320 120" version="1.1" xmlns="http://www.w3.org/2000/svg" xmlns:xlink="http://www.w3.org/1999/xlink">
    <!-- Generator: Sketch 50.2 (55047) - http://www.bohemiancoding.com/sketch -->
    <title>Group</title>
    <desc>Created with Sketch.</desc>
    <defs></defs>
    <g id="Welcome" stroke="none" stroke-width="1" fill="none" fill-rule="evenodd">
        <g id="Mobile-Portrait-Copy-2" transform="translate(0.000000, -239.000000)">
            <g id="Group" transform="translate(0.000000, 239.000000)">
                <g id="icon/amenities-copy">
                    <rect id="Rectangle-4" fill-opacity="0.7" fill="#000000" opacity="0.975390625" x="0" y="0" width="160" height="120"></rect>
                    <polygon id="keyboardtop" stroke="#FFFFFF" stroke-width="0.5" points="114 117.5 43 99 60.5 83 127 96.5 127 101"></polygon>
                    <polygon id="keyboardside" stroke="#FFFFFF" stroke-width="0.5" points="114 117.5 114 115 127 96.5 127 101"></polygon>
                    <polygon id="computerfront" stroke="#FFFFFF" stroke-width="0.5" points="65.5 84 126.5 96.5 126.5 78 65.5 69"></polygon>
                    <polygon id="computerside" stroke="#FFFFFF" stroke-width="0.5" points="126.5 78 148 61.5 148 80 127 101.5"></polygon>
                    <polygon id="computertop" stroke="#FFFFFF" stroke-width="0.5" points="148 61.5 130.5 59.5 128.5 61.5 128.5 63.5 114 73 82.5 68 94.5 61.5 85 60.5 65.5 69 126.5 78"></polygon>
                    <polygon id="monitorwhole" stroke="#FFFFFF" stroke-width="0.5" points="95 61.5 79 59 79 56 71 55 72.5 6.5 125.5 4 133.5 6.5 133.5 8 136 10.5 136 18.5 142 21.5 139.5 49.5 138 50.5 138 55 130.5 59 128.5 61.5 128.5 63.5 114.5 73 82.5 68"></polygon>
                    <polygon id="monitorframe" stroke="#FFFFFF" stroke-width="0.5" points="125.5 4 122.5 59.5 71 55 72.5 6.5"></polygon>
                    <polygon id="monitorinner" stroke="#FFFFFF" stroke-width="0.5" points="74 11.5 123 10 121 53.5 72.5 49.5"></polygon>
                    <polygon id="monitorscreen" stroke="#FFFFFF" stroke-width="0.5" points="78 12.5 120 11.5 118 51.5 76.5 48"></polygon>
                    <polygon id="discdrive" stroke="#FFFFFF" stroke-width="0.5" points="101 81 125 84.5 125 92 101 87.5"></polygon>
                    <polygon id="keyboard1" stroke="#FFFFFF" stroke-width="0.5" points="57.5 87.5 96.5 96 87 106.5 48 96"></polygon>
                    <polygon id="keyboard2" stroke="#FFFFFF" stroke-width="0.5" points="98.5 96.5 89.5 107 98.5 109.5 106.5 98.5"></polygon>
                    <polygon id="keyboard3" stroke="#FFFFFF" stroke-width="0.5" points="109 99 101.5 110 113 113.5 121 102"></polygon>
                    <polygon id="monitorbasefront" stroke="#FFFFFF" stroke-width="0.5" points="79 59 119.5 63.5 119.5 59 79 56"></polygon>
                    <polygon id="Path-33" stroke="#FFFFFF" stroke-width="0.5" points="122.5 59.5 130 59.5 133.5 6.5 125.5 4"></polygon>
                    <polygon id="Path-34" stroke="#FFFFFF" stroke-width="0.5" points="119.5 63.5 123.5 63.5 130.5 59.5 119.5 59.5"></polygon>
                    <path d="M0.5,55 L71,55" id="Path-35" stroke="#FFFFFF" stroke-width="0.5"></path>
                    <path d="M138.5,55 L160,55" id="Path-36" stroke="#FFFFFF" stroke-width="0.5"></path>
                    <path d="M39,75.5 C45,74.4204746 48,73.4204746 48,72.5 C48,71.1192881 44.5228475,70 39,70 C33.4771525,70 29.5,71.1192881 29.5,72.5 C29.5,73.4204746 32.6666667,74.4204746 39,75.5 Z" id="mugtop" stroke="#FFFFFF" stroke-width="0.5"></path>
                    <path d="M29.5,73 C27.25,82.5 27.75,88.6666667 31,91.5 C35.875,95.75 42.2611737,96.1128403 46.5,91.5 C49.3258842,88.4247731 49.8258842,82.2581064 48,73 C45.0833333,74.6666667 42,75.5 38.75,75.5 C35.5,75.5 32.4166667,74.6666667 29.5,73 Z" id="Path-37" stroke="#FFFFFF" stroke-width="0.5"></path>
                    <path d="M42,77 C44.1666667,77.3333333 45.25,78.5 45.25,80.5 C45.25,82.5 44.1666667,85 42,88 L47,86.5 C48,84.8333333 48.5,82.8333333 48.5,80.5 C48.5,78.1666667 47.4166667,76.6666667 45.25,76 L42,77 Z" id="Path-38" stroke="#FFFFFF" stroke-width="0.5"></path>
                    <ellipse id="Oval" stroke="#FFFFFF" stroke-width="0.5" cx="38.5" cy="73.5" rx="6.5" ry="1.5"></ellipse>
                    <polyline id="Path-39" stroke="#FFFFFF" stroke-width="0.5" points="44 85 39.5 86.75 42 88.5"></polyline>
                </g>
                <rect id="Rectangle-5" fill-opacity="0.67113904" fill="#000000" x="160" y="0" width="160" height="120"></rect>
                <text id="Amenities" font-family="Futura-Medium, Futura" font-size="24" font-weight="400" fill="#FFFFFF">
                    <tspan x="175" y="64.5413223">Amenities</tspan>
                </text>
            </g>
        </g>
    </g>
</svg>