<?xml version="1.0" encoding="UTF-8"?>
<svg width="960px" height="121px" viewBox="0 0 960 121" version="1.1" xmlns="http://www.w3.org/2000/svg" xmlns:xlink="http://www.w3.org/1999/xlink">
    <!-- Generator: Sketch 50.2 (55047) - http://www.bohemiancoding.com/sketch -->
    <title>bigactivitiesbutton copy</title>
    <desc>Created with Sketch.</desc>
    <defs></defs>
    <g id="Symbols" stroke="none" stroke-width="1" fill="none" fill-rule="evenodd">
        <g id="bigactivitiesbutton-copy" transform="translate(0.000000, -1.000000)">
            <rect id="Rectangle-10-Copy-2" stroke="#979797" fill-opacity="0.540449502" fill="#000000" x="0.5" y="2.37096774" width="959" height="119"></rect>
            <g id="activities" transform="translate(0.000000, 1.870968)">
                <rect id="Rectangle-Copy" fill-opacity="0.541213768" fill="#000000" x="0" y="0" width="304" height="120"></rect>
                <g transform="translate(152.000000, 0.000000)" id="Rectangle-5">
                    <rect x="0" y="0" width="152" height="120"></rect>
                </g>
                <g id="yogagirl">
                    <rect id="Rectangle-4" opacity="0.975390625" x="0" y="0" width="152" height="120"></rect>
                    <path d="M98.8,115.5 L93.575,114.5 L42.275,113.5 L25.175,106.5 L25.175,97.5 L15.2,95 L15.2,87.5 L17.575,87.5 L17.575,92.5 L19,92.5 L19.95,84 L21.85,84 L23.75,87.5 L27.075,89 L43.225,75 L48.925,59 C48.992056,56.2107053 49.467056,53.2107053 50.35,50 C51.6744159,45.1839421 51.7565353,42.7385179 54.15,40 C55.7456431,38.1743214 57.6456431,37.0076547 59.85,36.5 L67.925,33 C68.2416667,31.7777778 68.4,30.7777778 68.4,30 C68.4,29.2222222 68.2416667,28.5555556 67.925,28 C66.1962151,25.2711961 65.2462151,22.1045295 65.075,18.5 C64.8181773,13.0932058 65.2907417,9.24800042 66.975,6.5 C67.9392663,4.92672339 69.0575634,3.84379931 70.5433403,3.20543921 C71.6527305,2.72879269 72.9669984,2.5 74.575,2.5 C75.4721371,2.5 76.3320252,2.67064904 77.1546645,3.01194712 C78.1392152,3.42041933 79.4959937,4.58310362 81.225,6.5 C83.0442193,11.4376206 83.835886,15.4376206 83.6,18.5 C83.246171,23.0935691 81.2398922,26.3056361 80.75,28 C80.2601078,29.6943639 80.275,28.8333333 80.275,30 C80.275,30.7777778 80.4333333,31.7777778 80.75,33 L88.825,36.5 C90.9462813,37.2328311 93.0046146,38.8994977 95,41.5 C96.9953854,44.1005023 97.9453854,47.2671689 97.85,51 L98.8,59 L104.5,75 L118.75,90 L123.5,90 L127.3,87.5 L128.725,89 L128.725,95 L131.1,94 L132.05,91 L133.95,92.5 L132.05,97.5 L123.5,99.5 L120.65,98.5 L122.075,104 L115.9,112 L110.675,114.5 L98.8,115.5 Z" id="Path-18" stroke="#A4E7EA" stroke-width="0.5"></path>
                    <polygon id="Path-19" stroke="#A4E7EA" stroke-width="0.5" points="32.775 93 55.575 94 57.475 81.5 59.85 78.5 56.525 59 51.775 78.5 48.925 83"></polygon>
                    <polygon id="Path-20" stroke="#A4E7EA" stroke-width="0.5" points="89.775 57 85.975 77.5 88.825 81 92.625 93 114.95 94.5 97.375 83 95 78.5"></polygon>
                    <path d="M59.85,78.5 L85.5,78 L89.3,57 L87.4,50 L85.975,36 L82.65,34 C82.6330873,39.4757562 82.474754,43.4757562 82.175,46 C81.875246,48.5242438 81.2419127,51.1909105 80.275,54 C77.425,55 75.2083333,55.5 73.625,55.5 C72.0416667,55.5 70.1416667,55 67.925,54 C66.5793322,51.3344946 65.7876655,49.167828 65.55,47.5 C65.3123345,45.832172 65.1540012,41.332172 65.075,34 L61.75,36 L59.85,51 L57,60.5 L59.85,78.5 Z" id="Path-22" stroke="#A4E7EA" stroke-width="0.5"></path>
                    <path d="M69.825,105.5 L68.4,114 L88.825,114 L92.15,112.5 L98.325,115.5 C100.373229,115.734046 100.689896,114.734046 99.275,112.5 C97.1526562,109.148931 95.3397451,108.69661 93.575,108 C91.8102549,107.30339 90.5091067,108.924248 87.875,108 C86.1189289,107.383835 84.6939289,106.217168 83.6,104.5 C82.4752875,103.308832 81.0502875,102.808832 79.325,103 C77.5997125,103.191168 76.0163791,104.024501 74.575,105.5 L69.825,105.5 Z" id="Path-23" stroke="#A4E7EA" stroke-width="0.5"></path>
                    <polygon id="Path-24" stroke="#A4E7EA" stroke-width="0.5" points="74.575 105.5 70.3 102.5 66.025 104 70.3 105.5"></polygon>
                    <polygon id="Path-25" stroke="#A4E7EA" stroke-width="0.5" points="33.25 93 25.175 97.5 25.175 106.5 42.275 113.5 68.4 113.5 69.825 105.5"></polygon>
                    <path d="M114.475,94.5 L120.65,98.5 L122.075,104 L115.9,112 L110.675,114.5 L100.225,115.5 C99.5053684,113.019004 98.7137017,111.352337 97.85,110.5 C96.9862983,109.647663 95.2446316,108.814329 92.625,108 C90.2324139,108.392595 88.1740806,108.225929 86.45,107.5 C84.7259194,106.774071 83.6175861,105.607405 83.125,104 L114.475,94.5 Z" id="Path-26" stroke="#A4E7EA" stroke-width="0.5"></path>
                    <path d="M80.275,5 L82.65,5 L84.55,7.5 L86.925,31 L88.35,33 L89.775,31 L89.775,29 L91.675,31 L92.625,33 L90.725,35.5 L88.35,36.5 L81.225,33 L81.225,26.5 C82.9673583,22.4323189 83.7590249,18.5989855 83.6,15 C83.4409751,11.4010145 82.3326417,8.06768115 80.275,5 Z" id="Path-29" stroke="#A4E7EA" stroke-width="0.5"></path>
                    <path d="M82.65,11 C79.2572195,9.02732723 75.9372705,8.61066056 72.6901531,9.75 C69.4430357,10.8893394 66.9046513,13.3060061 65.075,17 C62.9543278,13.0480598 62.6376611,10.2147265 64.125,8.5 C65.6123389,6.78527349 69.4123389,4.78527349 75.525,2.5 C77.8792636,3.76700476 79.4625969,4.76700476 80.275,5.5 C81.0874031,6.23299524 81.8790697,8.06632857 82.65,11 Z" id="Path-30" stroke="#A4E7EA" stroke-width="0.5"></path>
                    <path d="M0.475,57.5 L48.925,57.5" id="Path-31" stroke="#A4E7EA" stroke-width="0.5"></path>
                    <polyline id="Path-32" stroke="#A4E7EA" stroke-width="0.5" points="98.8 56.5 151.525 56.5 303.876067 56.5"></polyline>
                    <polyline id="Path-21" stroke="#A4E7EA" stroke-width="0.3" points="59.85 81 86.925 84 58.9 88.5 86.925 87.5 74.575 90.5 89.3 90.5 64.6 94"></polyline>
                </g>
            </g>
            <text id="Activities" font-family="Futura-Bold, Futura" font-size="48" font-weight="bold" fill="#A4E7EA">
                <tspan x="535.468" y="68.3225806">Activities</tspan>
            </text>
            <path d="M304,58.0645161 L523,58.0645161" id="Path-78" stroke="#A4E7EA"></path>
            <path d="M776,59.9354839 L960,59.9354839" id="Path-79" stroke="#A4E7EA"></path>
        </g>
    </g>
</svg>