<?xml version="1.0" encoding="UTF-8"?>
<svg width="320px" height="120px" viewBox="0 0 320 120" version="1.1" xmlns="http://www.w3.org/2000/svg" xmlns:xlink="http://www.w3.org/1999/xlink">
    <!-- Generator: Sketch 50.2 (55047) - http://www.bohemiancoding.com/sketch -->
    <title>drawinghands</title>
    <desc>Created with Sketch.</desc>
    <defs></defs>
    <g id="Welcome" stroke="none" stroke-width="1" fill="none" fill-rule="evenodd">
        <g id="Mobile-Portrait-Copy-5" transform="translate(0.000000, -120.000000)">
            <g id="drawinghands" transform="translate(0.000000, 120.000000)">
                <rect id="Rectangle-6" fill="#E0A894" fill-rule="evenodd" x="0" y="0" width="320" height="120"></rect>
                <rect id="Rectangle-7" fill-opacity="0.431923687" fill="#D07D72" fill-rule="evenodd" x="0" y="17" width="320" height="90"></rect>
                <g id="handpencil" stroke-width="1" fill-rule="evenodd" transform="translate(183.000000, 13.000000)">
                    <polygon id="Path-65" stroke="#000000" fill="#E2BFBF" points="136.8991 42.6808916 107.137325 44.3104633 93.5404465 39.8290177 81.5844945 32.794856 63.1902285 18.0502185 57.901155 15.0393861 48.9214792 18.7462792 25.0219166 27.3571909 13.5260557 50.6900318 13.5260557 53.2531146 10.0422969 59.6425563 10.0422969 62.8335747 12.339297 61.8630391 16.0545823 62.8335747 18.8230277 59.6425563 21.2380126 61.1669784 23.8934098 61.8630391 21.8916184 64.29234 22.5536165 71.5994956 25.0219166 76.6047146 26.3182678 75.0758495 29.7822802 73.8930401 32.2540359 68.0648899 35.4267889 72.6727125 40.8323661 78.4944452 41.7199668 77.5604404 45.1158541 73.8930401 49.9640892 73.8930401 56.3495816 70.9365102 55.399286 66.470368 56.3495816 65.01259 59.1456719 65.7866489 62.3737148 65.7866489 67.9762624 69.9536331 78.5628015 75.0758495 88.3022201 78.4944452 101.766303 77.5604404 111.605441 77.5604404 136.8991 83.1906329"></polygon>
                    <polyline id="Path-66" stroke="#000000" points="59.5386253 39.3941032 52.3351383 41.8155056 34.8645101 43.7807661 30.2329918 47.1880076 25.5303864 49.4376163 21.9237063 52.4543727 18.5386796 55.2672475 18.5386796 59.1849334 21.9237063 61.4256563 24.7232523 62.2643847 34.8645101 62.2643847 42.2565753 59.1849334 49.9374315 57.8219381 58.2610332 59.1849334 66.0376595 65.336431 78.1244314 70.2962332 91.3895698 71.9559182"></polyline>
                    <polyline id="Path-67" stroke="#000000" points="41.6567783 59.6613154 41.6567783 64.7776078 45.4648717 70.11506 44.8221264 74.4780272"></polyline>
                    <polyline id="Path-68" stroke="#000000" points="55.5779909 66.9087381 52.59974 64.4073628 49.9547096 64.4073628 47.3170841 62.1207296"></polyline>
                    <path d="M56.6670049,65.0219695 L49.7123226,57.7464081" id="Path-69" stroke="#000000"></path>
                    <path d="M32.4357028,68.1651029 L32.4357028,62.5842763" id="Path-70" stroke="#000000"></path>
                    <polyline id="Path-71" stroke="#000000" points="40.7755952 77.9943676 40.7755952 72.9471875 36.383502 68.9959327 35.2406791 71.9608548"></polyline>
                    <polyline id="Path-72" stroke="#000000" points="23.4254201 72.7773685 24.9300959 70.9202195 24.177758 66.5819352 21.9266683 64.7159003"></polyline>
                    <polyline id="Path-73" stroke="#000000" points="54.1705662 72.1509139 52.5192734 67.9404876 49.4625306 67.9404876 47.9573612 70.0457007 49.4625306 72.1509139 52.5192734 72.1509139"></polyline>
                    <polygon id="Path-74" stroke="#000000" points="24.1466574 61.9232656 29.9392641 59.0812648 29.9392641 56.1681771 28.1196333 50.9111915 27.0429607 50.9111915 22.5555912 52.362552 18.6991191 55.157655 18.6991191 59.0812648"></polygon>
                    <polygon id="Path-75" stroke="#000000" fill="#8ABACF" points="40.3994263 43.0081882 75.5539437 3.70988859 71.788305 0.463086628 27.9873324 48.1521256 35.1651491 43.9268895"></polygon>
                    <polygon id="Path-76" stroke="#000000" fill="#8ABACF" points="18.5717548 59.6065191 5.82249109 73.3248374 0.718046469 83.4325263 11.3830776 76.231014 23.7191478 62.0294025"></polygon>
                    <polygon id="Path-77" stroke="#000000" fill="#D8D8D8" points="62.403828 10.8279724 66.3506399 14.2900102 73.2643485 6.58150893 69.2227539 3.25374673"></polygon>
                    <polygon id="Path-78" stroke="#000000" fill="#FAAFAF" points="71.6905604 0.547996152 69.1610464 3.28978391 73.3383975 6.41168988 75.4863123 3.47984302"></polygon>
                    <polyline id="Path-79" stroke="#000000" stroke-width="0.5" points="5.78349194 73.5667308 7.93584964 73.5667308 7.93584964 75.2668959 9.9465269 75.2668959 9.9465269 77.264738"></polyline>
                    <polygon id="Path-80" stroke="#000000" points="2.49275424 80.2765578 3.7170311 81.5023157 1.61107745 82.6046585"></polygon>
                    <polygon id="Path-81" fill-opacity="0.156278306" fill="#000000" points="54.8419438 40.994549 53.6275402 28.5010012 40.8985166 43.1266666"></polygon>
                    <polygon id="Path-82" fill-opacity="0.139237998" fill="#000000" points="46.3119923 27.9095965 45.6781329 25.9132353 38.7742975 31.9714311 30.2127517 31.9714311 28.2692122 31.9714311 30.9843424 39.362509 26.9422541 42.9499363 21.2291267 43.7501592 22.942127 46.6074634 16.6854798 53.8924044 15.0480096 58.2371062 12.3259682 56.5063342 12.3259682 61.4592252 16.6854798 62.9135476 18.8921401 59.3478412 18.8921401 55.2721841 24.7726183 50.3202804 30.2127517 45.8600622"></polygon>
                    <polygon id="Path-83" fill-opacity="0.144418025" fill="#000000" points="30.1890561 58.9331668 41.2643186 53.1543826 50.8038049 54.341635 58.2432614 53.1543826 66.0973923 49.76047 71.7083321 55.3758527 68.1376892 57.2705199 85.7114923 66.0216311 93.8020864 62.5072654 122.3618 71.6404694 90.5661449 71.6404694 77.9481948 70.2789551 66.0973923 65.0155519 58.2432614 58.9331668 49.8342566 57.2705199 41.9840749 58.9331668 34.8580925 62.5072654 24.5213454 62.5072654 26.8775846 60.7004697"></polygon>
                    <polygon id="Path-84" fill-opacity="0.1934726" fill="#000000" points="56.3989476 40.2876278 58.7196433 33.0012059 59.3609077 29.3861336 59.3609077 34.8368807 59.3609077 39.4533424"></polygon>
                    <polygon id="Path-85" fill-opacity="0.185688406" fill="#000000" points="54.0096331 71.5545726 52.3074933 68.0288527 49.257168 68.0288527 47.9820442 69.7917127 45.5715023 69.7917127 41.8922542 64.6107507 41.8922542 61.8506976 44.5634485 58.8294982 50.2020333 58.8294982 56.836824 65.1920354 51.638584 62.73583 50.2020333 64.6107507 52.3074933 64.6107507 55.8485166 66.8564102 55.8485166 71.5545726"></polygon>
                    <polygon id="Path-86" fill-opacity="0.201624774" fill="#000000" points="40.6363831 73.6703994 42.9264719 70.8649295 37.3619362 64.7652663 35.7595157 69.2178329 33.0508032 66.6204407 33.0508032 62.538366 38.9604073 60.6254334 41.6686262 59.6198479 42.9264719 64.7652663 45.6371591 70.8649295 45.6371591 73.6703994 40.6363831 78.0738468"></polygon>
                    <polygon id="Path-87" fill-opacity="0.220674819" fill="#000000" points="25.934694 62.8686245 26.7077656 71.4588025 25.934694 74.9213339 30.0602108 73.7577773 31.7307563 69.9264818 32.6134204 62.8686245"></polygon>
                    <polygon id="Path-88" fill-opacity="0.176913496" fill="#000000" points="111.237665 73.2384469 136.894163 73.2384469 136.894163 81.253511"></polygon>
                    <polygon id="Path-89" fill-opacity="0.186565897" fill="#000000" points="73.8463737 2.39329731 36.6209525 43.5033292 40.7593044 42.603387 75.5396275 3.88661887"></polygon>
                    <polygon id="Path-90" fill-opacity="0.237318841" fill="#000000" points="21.3451368 60.9907418 1.59972327 82.4037389 11.47243 76.2206471 23.4254201 61.9538725"></polygon>
                </g>
                <g id="handpencil-copy" stroke-width="1" fill-rule="evenodd" transform="translate(68.500000, 55.000000) scale(-1, 1) translate(-68.500000, -55.000000) translate(0.000000, 13.000000)">
                    <polygon id="Path-65" stroke="#000000" fill="#B19393" points="136.8991 42.6808916 107.137325 44.3104633 93.5404465 39.8290177 81.5844945 32.794856 63.1902285 18.0502185 57.901155 15.0393861 48.9214792 18.7462792 25.0219166 27.3571909 13.5260557 50.6900318 13.5260557 53.2531146 10.0422969 59.6425563 10.0422969 62.8335747 12.339297 61.8630391 16.0545823 62.8335747 18.8230277 59.6425563 21.2380126 61.1669784 23.8934098 61.8630391 21.8916184 64.29234 22.5536165 71.5994956 25.0219166 76.6047146 26.3182678 75.0758495 29.7822802 73.8930401 32.2540359 68.0648899 35.4267889 72.6727125 40.8323661 78.4944452 41.7199668 77.5604404 45.1158541 73.8930401 49.9640892 73.8930401 56.3495816 70.9365102 55.399286 66.470368 56.3495816 65.01259 59.1456719 65.7866489 62.3737148 65.7866489 67.9762624 69.9536331 78.5628015 75.0758495 88.3022201 78.4944452 101.766303 77.5604404 111.605441 77.5604404 136.8991 83.1906329"></polygon>
                    <polyline id="Path-66" stroke="#000000" points="59.5386253 39.3941032 52.3351383 41.8155056 34.8645101 43.7807661 30.2329918 47.1880076 25.5303864 49.4376163 21.9237063 52.4543727 18.5386796 55.2672475 18.5386796 59.1849334 21.9237063 61.4256563 24.7232523 62.2643847 34.8645101 62.2643847 42.2565753 59.1849334 49.9374315 57.8219381 58.2610332 59.1849334 66.0376595 65.336431 78.1244314 70.2962332 91.3895698 71.9559182"></polyline>
                    <polyline id="Path-67" stroke="#000000" points="41.6567783 59.6613154 41.6567783 64.7776078 45.4648717 70.11506 44.8221264 74.4780272"></polyline>
                    <polyline id="Path-68" stroke="#000000" points="55.5779909 66.9087381 52.59974 64.4073628 49.9547096 64.4073628 47.3170841 62.1207296"></polyline>
                    <path d="M56.6670049,65.0219695 L49.7123226,57.7464081" id="Path-69" stroke="#000000"></path>
                    <path d="M32.4357028,68.1651029 L32.4357028,62.5842763" id="Path-70" stroke="#000000"></path>
                    <polyline id="Path-71" stroke="#000000" points="40.7755952 77.9943676 40.7755952 72.9471875 36.383502 68.9959327 35.2406791 71.9608548"></polyline>
                    <polyline id="Path-72" stroke="#000000" points="23.4254201 72.7773685 24.9300959 70.9202195 24.177758 66.5819352 21.9266683 64.7159003"></polyline>
                    <polyline id="Path-73" stroke="#000000" points="54.1705662 72.1509139 52.5192734 67.9404876 49.4625306 67.9404876 47.9573612 70.0457007 49.4625306 72.1509139 52.5192734 72.1509139"></polyline>
                    <polygon id="Path-74" stroke="#000000" points="24.1466574 61.9232656 29.9392641 59.0812648 29.9392641 56.1681771 28.1196333 50.9111915 27.0429607 50.9111915 22.5555912 52.362552 18.6991191 55.157655 18.6991191 59.0812648"></polygon>
                    <polygon id="Path-75" stroke="#000000" fill="#EADFBC" points="40.3994263 43.0081882 75.5539437 3.70988859 71.788305 0.463086628 27.9873324 48.1521256 35.1651491 43.9268895"></polygon>
                    <polygon id="Path-76" stroke="#000000" fill="#EADFBC" points="18.5717548 59.6065191 5.82249109 73.3248374 0.718046469 83.4325263 11.3830776 76.231014 23.7191478 62.0294025"></polygon>
                    <polygon id="Path-77" stroke="#000000" fill="#D8D8D8" points="62.403828 10.8279724 66.3506399 14.2900102 73.2643485 6.58150893 69.2227539 3.25374673"></polygon>
                    <polygon id="Path-78" stroke="#000000" fill="#FAAFAF" points="71.6905604 0.547996152 69.1610464 3.28978391 73.3383975 6.41168988 75.4863123 3.47984302"></polygon>
                    <polyline id="Path-79" stroke="#000000" stroke-width="0.5" points="5.78349194 73.5667308 7.93584964 73.5667308 7.93584964 75.2668959 9.9465269 75.2668959 9.9465269 77.264738"></polyline>
                    <polygon id="Path-80" stroke="#000000" points="2.49275424 80.2765578 3.7170311 81.5023157 1.61107745 82.6046585"></polygon>
                    <polygon id="Path-81" fill-opacity="0.156278306" fill="#000000" points="54.8419438 40.994549 53.6275402 28.5010012 40.8985166 43.1266666"></polygon>
                    <polygon id="Path-82" fill-opacity="0.139237998" fill="#000000" points="46.3119923 27.9095965 45.6781329 25.9132353 38.7742975 31.9714311 30.2127517 31.9714311 28.2692122 31.9714311 30.9843424 39.362509 26.9422541 42.9499363 21.2291267 43.7501592 22.942127 46.6074634 16.6854798 53.8924044 15.0480096 58.2371062 12.3259682 56.5063342 12.3259682 61.4592252 16.6854798 62.9135476 18.8921401 59.3478412 18.8921401 55.2721841 24.7726183 50.3202804 30.2127517 45.8600622"></polygon>
                    <polygon id="Path-83" fill-opacity="0.144418025" fill="#000000" points="30.1890561 58.9331668 41.2643186 53.1543826 50.8038049 54.341635 58.2432614 53.1543826 66.0973923 49.76047 71.7083321 55.3758527 68.1376892 57.2705199 85.7114923 66.0216311 93.8020864 62.5072654 122.3618 71.6404694 90.5661449 71.6404694 77.9481948 70.2789551 66.0973923 65.0155519 58.2432614 58.9331668 49.8342566 57.2705199 41.9840749 58.9331668 34.8580925 62.5072654 24.5213454 62.5072654 26.8775846 60.7004697"></polygon>
                    <polygon id="Path-84" fill-opacity="0.1934726" fill="#000000" points="56.3989476 40.2876278 58.7196433 33.0012059 59.3609077 29.3861336 59.3609077 34.8368807 59.3609077 39.4533424"></polygon>
                    <polygon id="Path-85" fill-opacity="0.185688406" fill="#000000" points="54.0096331 71.5545726 52.3074933 68.0288527 49.257168 68.0288527 47.9820442 69.7917127 45.5715023 69.7917127 41.8922542 64.6107507 41.8922542 61.8506976 44.5634485 58.8294982 50.2020333 58.8294982 56.836824 65.1920354 51.638584 62.73583 50.2020333 64.6107507 52.3074933 64.6107507 55.8485166 66.8564102 55.8485166 71.5545726"></polygon>
                    <polygon id="Path-86" fill-opacity="0.201624774" fill="#000000" points="40.6363831 73.6703994 42.9264719 70.8649295 37.3619362 64.7652663 35.7595157 69.2178329 33.0508032 66.6204407 33.0508032 62.538366 38.9604073 60.6254334 41.6686262 59.6198479 42.9264719 64.7652663 45.6371591 70.8649295 45.6371591 73.6703994 40.6363831 78.0738468"></polygon>
                    <polygon id="Path-87" fill-opacity="0.220674819" fill="#000000" points="25.934694 62.8686245 26.7077656 71.4588025 25.934694 74.9213339 30.0602108 73.7577773 31.7307563 69.9264818 32.6134204 62.8686245"></polygon>
                    <polygon id="Path-88" fill-opacity="0.176913496" fill="#000000" points="111.237665 73.2384469 136.894163 73.2384469 136.894163 81.253511"></polygon>
                    <polygon id="Path-89" fill-opacity="0.186565897" fill="#000000" points="73.8463737 2.39329731 36.6209525 43.5033292 40.7593044 42.603387 75.5396275 3.88661887"></polygon>
                    <polygon id="Path-90" fill-opacity="0.237318841" fill="#000000" points="21.3451368 60.9907418 1.59972327 82.4037389 11.47243 76.2206471 23.4254201 61.9538725"></polygon>
                </g>
                <path d="M136.468137,96.7721663 L141.620877,101.651933 L145.118014,96.7721663 L156.680198,89.8807263 L155.335267,97.1594212 L160.986386,100.053767 L157.313188,104.487461 L175.159284,107.610567 L168.182182,98.7456465 L174.156211,93.6802457 C176.335523,96.8015756 177.425179,98.3622405 177.425179,98.3622405 C177.425179,98.3622405 181.089298,99.9859347 188.417534,103.233323 L182.685491,97.6520758" id="Path-91" stroke="#000000" stroke-width="1"></path>
            </g>
        </g>
    </g>
</svg>