<?xml version="1.0" encoding="UTF-8"?>
<svg width="320px" height="120px" viewBox="0 0 320 120" version="1.1" xmlns="http://www.w3.org/2000/svg" xmlns:xlink="http://www.w3.org/1999/xlink">
    <!-- Generator: Sketch 50.2 (55047) - http://www.bohemiancoding.com/sketch -->
    <title>fistgroup</title>
    <desc>Created with Sketch.</desc>
    <defs></defs>
    <g id="fistgroup" stroke="none" stroke-width="1" fill="none" fill-rule="evenodd">
        <g>
            <rect id="Rectangle-8" fill="#E0A894" x="0" y="0" width="320" height="120"></rect>
            <rect id="Rectangle-7" fill-opacity="0.431923687" fill="#D07D72" x="0" y="16" width="320" height="90"></rect>
            <g id="fist1" transform="translate(47.000000, 23.000000)">
                <polygon id="Path-92" stroke="#000000" fill="#B19393" points="10.9674109 96 33.4464854 96 25.6420335 67.1223768 23.1166975 44.3551254 23.1166975 35.593008 29.3657304 21.0148128 30.2478494 16.9366786 26.9164006 10.1131337 26.9164006 4.49739562 24.0849032 1.19865363 21.7544379 0.721754695 20.2033911 3.89823784 17.2646001 1.19865363 15.0620042 1.94497884 12.9878665 4.49739562 10.9674109 4.49739562 9.89607939 4.99871687 8.26043132 7.30793065 6.08629087 7.30793065 3.26523918 10.1131337 0 16.2177237 1.15648846 19.0008005 2.0577492 26.128328 4.66052807 34.0903702 5.56373118 37.9700468"></polygon>
                <polyline id="Path-93" stroke="#000000" points="26.9808756 10.367792 23.0522225 5.19430306 19.4189298 6.35953572 17.2307417 7.17898064 11.0915685 8.49333427 11.0915685 10.367792 14.8901909 12.7753392 19.4189298 12.7753392 21.1359821 15.37379 21.1359821 16.6647309 19.036222 17.554414 13.2228457 24.7053766"></polyline>
                <polyline id="Path-94" stroke="#000000" points="18.2907973 18.5377479 16.1418705 18.5377479 16.7253874 16.1161531 15.0864975 12.791548"></polyline>
                <polyline id="Path-95" stroke="#000000" points="15.8162537 18.4278882 14.0383284 20.6693852 11.8530219 20.6693852 11.230604 19.5486367 11.230604 16.2278137 8.40306876 7.49775372"></polyline>
                <polyline id="Path-96" stroke="#000000" points="10.8923803 19.3294577 8.97181756 20.090551 7.48745163 19.3294577 5.56724906 14.4253951 4.34726667 13.8908649"></polyline>
                <polygon id="Path-97" stroke="#000000" points="11.8252869 8.64101445 14.0840733 10.9318583 17.5585197 9.82209572 17.5585197 7.37564742"></polygon>
                <polygon id="Path-98" fill-opacity="0.169723732" fill="#080000" points="17.6656949 10.0816916 20.9196433 11.0135167 21.7161756 8.01216102 21.7161756 12.1135063 24.3998872 10.0816916 23.5154665 12.7647112 25.583613 17.1722819 25.583613 18.6733057 24.3998872 18.6733057 24.3998872 20.1251951 23.5154665 21.3978474 23.5154665 22.8642695 16.1760896 31.126821 14.2498103 30.6160992 13.7473929 24.9133851 12.4923875 29.9607421 13.7473929 32.8527562 16.8248724 33.9323308 19.0380002 36.5250398 20.0383368 57.6106533 21.7161756 72.9831721 28.0413752 95.7694615 33.4773099 95.7694615 25.583613 67.3320145 23.5154665 43.7426185 22.9848487 34.9700372 29.2583187 21.3978474 30.3320109 17.1722819 29.7904936 15.3972122 22.9848487 5.43606084 17.6656949 6.9253201"></polygon>
                <polygon id="Path-99" fill-opacity="0.156221694" fill="#000000" points="6.87617767 18.7120597 2.78002269 17.4352552 6.87617767 17.4352552"></polygon>
                <polyline id="Path-100" stroke="#000000" points="13.2615843 4.46617384 14.4505004 6.06788877 14.4505004 7.60559047"></polyline>
                <path d="M20.2545977,3.87586801 L20.6981921,6.05750825" id="Path-101" stroke="#000000"></path>
                <polygon id="Path-102" fill-opacity="0.20629529" fill="#000000" points="5.55819707 36.390093 10.3301242 35.9240074 6.15161706 38.2668918 6.15161706 40.091788 14.0809537 36.390093 6.15161706 42.5121803"></polygon>
                <polygon id="Path-103" fill-opacity="0.140172101" fill="#000000" points="8.861626 17.4778153 7.99727432 15.8594916 7.22565533 12.7851262 7.22565533 9.47927515 5.45404581 8.2671759 2.84403592 10.8875663 0.898379609 15.3646865 2.24680975 16.4667522 2.24680975 13.8157393 4.72014273 13.8157393 3.77447694 12.7851262 6.43154521 16.4667522 7.22565533 17.9587796"></polygon>
                <polygon id="Path-104" fill-opacity="0.206182065" fill="#000000" points="7.12427221 17.8937283 11.0667954 17.2598243 13.3550091 19.0677657 15.9736694 17.8937283 16.797191 15.669528 15.9736694 12.8920456 19.2625656 12.8920456 21.3628917 15.669528 19.9725934 17.2598243 18.3992519 18.3449351 15.9736694 21.3521731 13.3550091 20.8466416 9.26508239 24.9829346 11.0667954 21.3521731 9.26508239 20.8466416 7.66475152 19.0677657"></polygon>
            </g>
            <g id="fist4" transform="translate(176.000000, 27.000000)">
                <polygon id="Path-117" stroke="#000000" fill="#B19393" points="16.8984375 92.5904948 15.898112 75.2597656 13.711263 58.3746745 9.48567708 39.4570313 5.5250651 32.5003255 0.401367188 18.8092448 0.401367188 15.5458984 2.5094401 11.5273438 4.47102865 10.0172526 4.47102865 7.68815104 6.4296875 6.51204427 7.71809896 6.51204427 10.1875 5.3219401 11.1240234 3.70768229 15.898112 1.73632813 17.5970052 1.73632813 19.8847656 0.387044271 24.3330078 0.387044271 29.194987 3.70768229 29.7174479 12.1158854 29.194987 20.0104167 27.7884115 28.2480469 27.7884115 32.5003255 31.3662109 40.9638672 32.4117839 48.1184896 35.3372396 59.3144531 49.0094401 92.5904948"></polygon>
                <path d="M25.5292969,4.94856771 C25.5292969,4.94856771 25.0653212,6.73676215 24.1373698,10.313151 L26.0292969,12.9195964 L25.5292969,13.7379557 L23.718099,13.7379557 L16.6425781,8.03027344 L17.538737,1.88346354" id="Path-118" stroke="#000000"></path>
                <polyline id="Path-119" stroke="#000000" points="16.8629557 8.29394531 14.6292318 7.28645833 6.80045573 6.71191406 4.63997396 8.29394531 4.63997396 10.265625 5.35872396 12.5667318 11.5520833 15.0585937 12.7460938 15.0585937 13.5065104 16.2773437 16.1520182 18.9072266 17.7545573 20.9261068 20.5748698 22.7464193"></polyline>
                <polyline id="Path-120" stroke="#000000" points="2.50292969 12.1276042 5.74283854 14.8486328 8.04622396 17.5104167 10.5784505 20.639974 12.8828125 21.0878906 13.8271484 19.0296224 13.8271484 17.0651042"></polyline>
                <polyline id="Path-121" stroke="#000000" points="0.481445312 18.311849 6.01692708 24.3457031 9.08561198 25.7838542 12.3063151 25.3544922 13.0869141 21.2213542"></polyline>
                <polyline id="Path-122" stroke="#000000" points="12.2360026 25.4977214 13.1871745 29.6145833 15.2776693 32.4892578"></polyline>
                <path d="M24.2591146,14.7392578 L25.4394531,18.0458984 C25.4394531,19.5613064 25.4394531,20.3190104 25.4394531,20.3190104 C25.4394531,20.3190104 24.6706814,20.8119575 23.133138,21.7978516 L20.3580729,20.3190104 L17.7249349,17.6090495 L17.7249349,20.7610677 L20.3580729,22.6979167 L23.133138,24.6230469 L24.9983724,25.7486979 L24.2591146,29.5696615 L21.582194,31.9957682 L20.3580729,31.3971354 C18.4561632,29.874349 17.335612,29.1129557 16.9964193,29.1129557 C16.6572266,29.1129557 15.8390842,28.4352214 14.5419922,27.0797526 L15.6848958,30.8170573 L17.7249349,31.9957682 C18.9905599,33.3505859 19.7458225,34.0279948 19.9907227,34.0279948 C20.2356228,34.0279948 21.6584201,35.4191623 24.2591146,38.2014974 L26.9541016,36.8193359 L27.7867839,34.0279948 L27.7867839,31.9957682 L27.7867839,27.0797526 L29.4475911,18.6416016 L29.4475911,14.7392578 L26.9541016,15.6188151 L24.2591146,14.7392578 Z" id="Path-123" fill-opacity="0.192453578" fill="#000000"></path>
                <polygon id="Path-124" fill-opacity="0.150617074" fill="#000000" points="10.2431641 20.7835286 9.3811849 23.0445964 7.71842448 23.5784505 5.14127604 21.6438802 2.96972656 20.7835286 6.60644531 24.7460937 8.87630208 25.6839193 11.5917969 25.6839193 12.6695964 23.5784505 12.6695964 21.6438802"></polygon>
                <polygon id="Path-125" fill-opacity="0.166015625" fill="#000000" points="25.6855469 5.26529948 29.0276693 3.75488281 29.5416667 9.54134115 25.6855469 12.1373698 24.3076172 10.0843099"></polygon>
                <path d="M6.52539062,10.7548828 L10.0742188,10.061849 L10.0742188,8.06315104 L11.2792969,7 L6.52539062,7 C6.17513021,7.90165654 6,8.52747034 6,8.87744141 C6,9.22741247 6.17513021,9.85322627 6.52539062,10.7548828 Z" id="Path-126" stroke="#000000"></path>
                <path d="M6.57226562,33.4505208 C6.57226562,33.4505208 7.46267361,33.8871528 9.24348958,34.7604167 L12.5611979,34.7604167 L14.6572266,36.3037109 L16.6386719,36.3037109 L15.5807292,34.0211589 L19.4866536,37.5585937 L13.9440104,37.5585937 L14.6572266,39.4134115 L19.0107422,45.8193359 L12.5611979,39.6349284 L10.2675781,38.5335286 L8.17285156,37.5585937 C7.10579427,34.8198785 6.57226562,33.4505208 6.57226562,33.4505208 Z" id="Path-127" fill-opacity="0.118432971" fill="#000000"></path>
                <polygon id="Path-128" fill-opacity="0.17651721" fill="#000000" points="6.6858724 13.5029297 12.03125 18.8339844 13.6386719 19.3098958 13.6386719 16.4064128 12.03125 15.0800781"></polygon>
                <polygon id="Path-129" fill-opacity="0.13782269" fill="#000000" points="25.1479018 38.8240674 27.8078905 37.4791598 28.9901077 35.4302462 31.4151812 41.2449504 35.2620706 59.3671864 49.1057945 92.6218517 39.1634366 92.6218517 29.7826073 57.9796341"></polygon>
                <polygon id="Path-130" fill-opacity="0.174196105" fill="#000000" points="5.3001157 11.2127312 10.0656785 10.4544721 13.5601406 13.2764698 17.0398979 17.2018324 17.0398979 19.7526539 14.6775004 17.5246275 12.6362753 15.103563 11.0236183 14.8975441 5.3001157 12.424303"></polygon>
                <polygon id="Path-140" fill-opacity="0.107053895" fill="#000000" points="21.324563 8.91721613 24.0617658 0.534258574 28.8758646 3.52522146 25.4696857 5.47829727 24.0617658 10.4276396 26.0199413 13.0557092 25.4696857 13.7565074 23.9305 13.7565074 21.9221436 12.3038123"></polygon>
            </g>
            <g id="fist2" transform="translate(107.000000, 16.000000)">
                <polygon id="Path-105" stroke="#000000" fill="#E2BFBF" points="9.23048576 0.981507503 2.17795738 7.32089384 0.279705463 18.9713025 10.2861851 31.4832948 8.39935176 71.4597328 3.29940005 103.98157 29.0126514 103.98157 29.6697386 93.3138512 27.6019381 35.3251269 28.5168083 32.397473 29.6697386 28.7442204 29.0126514 13.7305217 28.5168083 9.01949367 27.0746074 7.32089384 24.9445238 7.32089384 23.5341565 4.37905318 19.4553024 3.92127205 17.409301 1.49845763 13.2705859 2.02648031 11.3017464 0.981507503"></polygon>
                <polyline id="Path-106" stroke="#000000" points="7.25576397 7.52815831 8.38897123 9.28108289 7.25576397 13.2568238 7.8223676 15.8865567 9.05194073 15.8865567 11.2283907 15.0343156 13.7740413 17.3751239 15.8549905 16.7495243 15.8549905 18.1713101 18.2459713 19.5650685 19.6577227 19.5650685 20.6957751 18.6328974 22.6715349 19.5650685 26.3995273 18.6328974 28.7247648 12.5530242"></polyline>
                <polyline id="Path-107" stroke="#000000" points="11.1712978 15.0000599 14.6522337 10.827781 14.6522337 7.93403682 12.9117658 4.14133917 12.9117658 1.9510485"></polyline>
                <polyline id="Path-108" stroke="#000000" points="15.5456509 16.9457162 18.6265906 13.5516307 18.6265906 11.4253532 19.7905934 10.194569 19.7905934 4.06902152"></polyline>
                <polyline id="Path-109" stroke="#000000" points="20.793352 18.3789206 23.0819117 15.4069764 24.7763593 9.16412898 24.7763593 7.23023726"></polyline>
                <polygon id="Path-110" fill-opacity="0.179885643" fill="#000000" points="1.0125705 16.8682083 3.93295807 17.694152 2.47276428 19.8636816 10.6636902 29.3725881 12.4380678 29.3725881 15.0574202 30.873958 20.435916 25.4338711 18.6276286 20.9806261 22.3784581 25.4338711 14.4681524 34.2542028 13.5197185 32.8185763 12.4380678 77.103624 8.36371196 103.81998 3.21739391 103.81998 7.71596723 75.737201 10.2152515 31.5746434 0.286971831 18.9636902"></polygon>
                <polygon id="Path-111" fill-opacity="0.197435462" fill="#000000" points="7.58621067 7.97071468 4.47170729 6.69321812 6.39383442 6.43716518 6.39383442 5.41572157"></polygon>
                <polygon id="Path-112" fill-opacity="0.141276042" fill="#000000" points="13.5799255 11.5250063 11.3699119 11.5250063 9.63463418 10.4859158 7.74191854 14.5595796 7.74191854 16.0699459 10.660922 15.2284314"></polygon>
                <polygon id="Path-113" fill-opacity="0.140540082" fill="#000000" points="11.9034708 15.1941757 14.282687 13.3073423 15.6605287 14.250759 17.9982228 14.250759 15.6605287 16.8273782 13.7557024 17.396923"></polygon>
                <polygon id="Path-114" fill-opacity="0.186735734" fill="#000000" points="17.0740101 15.5246224 19.5397307 16.0938211 21.0397165 15.5246224 22.2397051 16.0938211 19.6568576 19.2806422 18.1445882 19.2806422 16.1162337 18.3910312 16.1162337 16.7602508"></polygon>
                <polygon id="Path-115" fill-opacity="0.189368207" fill="#000000" points="22.3857245 16.7661331 24.8140752 16.289321 26.2047195 15.4360419 28.4680198 10.0049515 28.4680198 13.3855423 26.6531581 18.4889542 22.3857245 19.4425784 20.8732821 18.4889542"></polygon>
                <polygon id="Path-116" fill-opacity="0.13892663" fill="#000000" points="28.8417187 26.6802261 26.2078336 31.4137453 25.4991898 32.436919 22.6369332 32.436919 21.6511294 30.7653085 22.6369332 33.9362127 25.4991898 33.9362127 28.273558 32.436919"></polygon>
                <polygon id="Path-131" fill-opacity="0.150673687" fill="#000000" points="7.2132463 12.9613122 5.03012923 10.5444918 6.78065576 14.2815693 5.27906463 14.2815693 7.45318754 15.0244587"></polygon>
            </g>
            <g id="fist3" transform="translate(243.000000, 27.000000)">
                <polygon id="Path-132" stroke="#000000" fill="#E2BFBF" points="11.2673065 92.677841 12.134461 57.9119432 10.7757245 49.0411078 10.7757245 37.6812536 0.872145563 16.2551481 2.07501465 10.1131275 2.07501465 6.92319123 6.50330329 0.846628451 9.26436095 0.846628451 10.3016411 2.94354813 10.3016411 4.64026756 12.8512569 1.97496631 14.3866001 1.97496631 16.2109947 4.09683775 17.4025221 2.94354813 19.5794818 2.94354813 21.6018703 6.14612225 24.3640621 6.14612225 26.2597475 9.16463667 26.2597475 13.3558836 27.4422015 15.1543544 28.5144789 34.143289 27.9182291 36.0603616 27.9182291 43.7834163 33.5210326 92.677841"></polygon>
                <polyline id="Path-133" stroke="#000000" points="3.15760485 15.2684177 10.1683903 5.28928351 11.3982432 4.01713403 16.6877496 6.51981429 22.6184823 9.27180005 21.7267305 10.6856158 21.025313 10.6856158 20.1317988 11.7111711 14.1744953 12.2194073 12.1187754 16.3980875 16.6877496 21.265442 20.4867101 26.5276998 20.4867101 28.3168972 20.4867101 29.787515"></polyline>
                <polyline id="Path-134" stroke="#000000" points="14.1324699 18.2324284 15.7931509 17.2575747 17.4782338 12.0940089"></polyline>
                <polyline id="Path-135" stroke="#000000" points="15.760344 20.2017928 16.9916882 20.2017928 19.8734104 17.2891615 21.7969536 10.6662299"></polyline>
                <polyline id="Path-136" stroke="#000000" points="18.4658307 19.2366998 20.0358182 19.8063473 21.548597 19.5215236 25.3582672 15.7346285 26.3401703 13.0757764"></polyline>
                <path d="M16.1534848,4.1262645 L16.1534848,6.11555707" id="Path-137" stroke="#000000"></path>
                <path d="M21.4951841,6.29911316 L21.7051755,8.92217585" id="Path-138" stroke="#000000"></path>
                <polyline id="Path-139" stroke="#000000" points="21.0533751 10.62312 17.3262646 9.4206513 16.6764977 6.59681566"></polyline>
                <polygon id="Path-141" fill-opacity="0.124943388" fill="#000000" points="7.55124095 17.6698843 5.09445943 19.5894045 3.57142089 15.1977798 5.09445943 25.4073415 10.9171849 37.9198166 10.9171849 49.6035749 12.2525171 59.1181764 10.9171849 92.7645272 16.2409564 92.7645272 16.2409564 60.1096997 14.8449707 49.6035749 15.7758406 39.3959286 18.9847242 36.5627768 20.8043259 35.1741334 15.7758406 34.4501235 8.4115614 24.2389657 7.55124095 22.1275893 8.4115614 17.6698843 9.79222409 17.6698843"></polygon>
                <polygon id="Path-142" fill-opacity="0.145889946" fill="#000000" points="27.9690874 30.3202661 25.6565971 34.7351944 23.1321391 35.4748466 24.7969151 35.9760351 27.9690874 35.9760351 28.6091402 34.0740725"></polygon>
                <polygon id="Path-143" fill-opacity="0.132925725" fill="#000000" points="4.28968472 4.3290116 7.30830816 9.36962754 5.79899644 10.9606617 2.17543523 9.36962754 2.63033566 6.403996"></polygon>
                <polygon id="Path-144" fill-opacity="0.14990942" fill="#000000" points="14.195341 12.2940786 12.2094213 16.2959254 14.888705 19.091089 16.9138898 20.1812539 18.6006925 19.091089 20.8531678 19.6554848 22.5795548 18.4596553 23.5362822 17.364702 20.1748075 16.7639142 17.8728518 17.364702 16.1413571 16.7639142 17.8728518 12.2940786"></polygon>
                <polygon id="Path-145" fill-opacity="0.140879755" fill="#000000" points="12.5615302 5.31191575 14.2738712 8.7998049 17.5587311 9.45454228 16.5295388 6.58148697"></polygon>
                <polygon id="Path-146" fill-opacity="0.138473732" fill="#000000" points="17.258079 4 18.3389863 6.90274355 16 5.98655813"></polygon>
                <polygon id="Path-146-Copy" fill-opacity="0.138473732" fill="#000000" points="12.258079 2 13.3389863 4.90274355 11 3.98655813"></polygon>
                <polygon id="Path-147" fill-opacity="0.222769475" fill="#000000" points="11.9565924 16.5018277 11.0959527 18.5139241 9.02320296 20.2390342 11.9565924 18.5139241"></polygon>
            </g>
        </g>
    </g>
</svg>