<?xml version="1.0" encoding="UTF-8"?>
<svg width="320px" height="120px" viewBox="0 0 320 120" version="1.1" xmlns="http://www.w3.org/2000/svg" xmlns:xlink="http://www.w3.org/1999/xlink">
    <!-- Generator: Sketch 50.2 (55047) - http://www.bohemiancoding.com/sketch -->
    <title>footer</title>
    <desc>Created with Sketch.</desc>
    <defs></defs>
    <g id="Symbols" stroke="none" stroke-width="1" fill="none" fill-rule="evenodd">
        <g id="footer">
            <rect id="Rectangle-6" fill="#F4EEDC" x="0" y="0" width="320" height="120"></rect>
            <g id="Group" opacity="0.253794643" transform="translate(270.000000, 31.000000)" stroke="#000000">
                <path d="M26.6787361,53.8602026 L26.1732463,49.6560088 L17.4559964,15.0526685 L16.6157262,15.0526685 C16.11169,13.3598897 15.6384453,12.2046341 15.1959921,11.5869016 C14.753539,10.9691691 13.8891376,10.2568656 12.6027881,9.44999096 C10.9383906,8.93882095 9.77398313,8.71661638 9.10956559,8.78337725 C8.11293929,8.88351855 8.11293929,9.44999096 6.11456197,10.1019298 C4.78231042,10.5365557 3.22695705,10.5365557 1.44850186,10.1019298 C0.482833953,8.64366578 6.18135282e-17,7.21281404 0,5.80937461 C0,4.40593517 0.482833953,3.00526579 1.44850186,1.60736647 C3.50291712,1.15463116 5.05827049,1.15463116 6.11456197,1.60736647 C7.17085344,2.06010178 8.16918799,2.46621055 9.10956559,2.8256928 L11.1182476,2.8256928 L15.1959921,0 L24.2533965,0.561391784 C28.18241,2.15202734 30.98036,3.44997263 32.6472466,4.45522768 C34.3141332,5.46048273 37.0983843,7.52901475 41,10.6608237 L41,13.4958835 L36.4799914,10.6608237 L41,15.5044671 L40.3585748,17.7503465 L39.3308403,17.7503465 L32.6472466,12.8742311 C31.2809598,12.2609553 30.3118144,11.8318455 29.7398106,11.5869016 C29.1678068,11.3419577 27.978952,10.8469671 26.1732463,10.1019298 L26.1732463,13.4958835 L26.6787361,15.5044671 L31.8828473,48.1079663 L34.4788965,54.8811987 L31.1794609,57 C29.7023912,56.6925672 28.7067964,56.3595205 28.1926766,56.00086 C27.6785568,55.6421995 27.1739099,54.928647 26.6787361,53.8602026 Z" id="Path-2" stroke-width="0.8"></path>
                <polygon id="Path-3" stroke-width="0.8" points="15 3.13298587 24.1809279 4 25 1.73762143 16.2127147 1"></polygon>
                <path d="M38.9470129,16.7979317 C38.2581487,15.6008478 32.6948864,10.8490362 29.168883,8.27693988 C26.8182141,6.56220902 24.6475621,5.44593023 22.6569272,4.9281035 L13.53506,4 C11.5521275,4.35462646 10.017037,4.53193968 8.92978854,4.53193968 C7.84254005,4.53193968 6.22938189,4.35462646 4.09031406,4 C3.96989531,5.41783455 3.96989531,6.3994438 4.09031406,6.94482774 C4.2107328,7.49021168 4.6188887,8.35716575 5.31478174,9.54568995 L8.30905788,8.27693988 L11.8313722,8.87435371 L14.299155,10.4642891 L15.8928478,13.9921988 L23.8097127,14.523535 L25.2430474,12.8900005 L25.2430474,9.54568995 L31.3690935,12.1003884 C36.8802826,16.0301399 39.4062557,17.5959877 38.9470129,16.7979317 Z" id="Path-7"></path>
            </g>
            <g id="Group" opacity="0.254185268" transform="translate(263.500000, 62.000000) scale(-1, 1) translate(-263.500000, -62.000000) translate(247.000000, 31.000000)" stroke="#050000">
                <path d="M7.68705357,36.990932 L6.29814492,39.6817259 L4.55369155,43.0613322 C4.85507277,43.8468376 4.85507277,44.6005592 4.55369155,45.3224968 C4.10161971,46.4054033 3.29614189,46.1204396 2.95304217,46.8955759 C2.72430903,47.4123334 2.72430903,48.0933779 2.95304217,48.9387092 C0.908027961,52.3066087 -0.0748401109,54.4645848 0.00443795715,55.4126373 C0.0837160252,56.3606899 1.24703841,56.3606899 3.49440511,55.4126373 L10.5990572,59.7977865 C11.0334994,62.0410426 11.9828587,62.570501 13.4471351,61.3861617 C14.156083,60.8127489 14.4165381,59.6548575 14.9179276,58.6411035 C15.2740551,57.9210531 15.8053487,56.7124926 16.5118083,55.0154221 L15.9387332,52.931499 C17.3537556,49.6769273 17.3537556,47.3781263 15.9387332,46.0350961 C13.8161997,44.0205506 12.5650849,44.5071243 11.9382379,43.4223708 C11.311391,42.3376172 12.4739928,40.6668486 11.4895046,38.0099493 C10.8331791,36.238683 9.94248102,35.2353666 8.81741035,35 L7.68705357,36.990932 Z" id="Path-9"></path>
                <path d="M12.6991396,53.8914062 C13.2057599,54.6311361 13.2010926,56 11.6662684,56 C10.1314442,56 6.08406402,53.6556422 5.13072878,52.1394705 C4.86105089,51.7105783 4.71266214,47.6968394 7.81730098,49.4334604 C10.9219398,51.1700814 12.1925194,53.1516763 12.6991396,53.8914062 Z" id="Path-10"></path>
                <path d="M12.9573159,55.1729423 C12.7137503,54.9742846 11.9176726,55.9203509 8.62292306,53.9436617 C5.32817355,51.9669725 5.96924597,50.2828623 5.4908993,50.0252885 C5.01255263,49.7677147 4.88178566,51.5509895 5.10740963,52.0506746 C5.40975399,52.7202708 6.18735229,53.2904048 7.09094939,53.9934711 C9.45780674,55.8350634 11.1645636,55.8680116 11.7565521,55.9870348 C12.3485407,56.1060579 13.2008815,55.3716 12.9573159,55.1729423 Z" id="Path-12"></path>
                <path d="M9,36.1184759 L28.5898291,0 L33,1.94948305 L31.7167373,2.67962228 L32.3809758,3.96329057 L30.4680018,5.86650514 L31.3407739,7.59480226 L29.2806481,9.54795293 L30.4680018,11.7623513 L28.5898291,13.647792 L29.2806481,16.1716813 L27.2043547,18.0592379 L27.9420321,20.4196359 L26.2069009,22.0316976 L26.2069009,24.9494333 L24.4928696,26.2878338 L25.4234612,28.8506564 L23.6529806,29.9802844 L23.6529806,32.9369534 L22.0137584,34.2364207 L22.0137584,37.8930415 L20.3706998,38.7199495 L21,41.5110112 L19.1759474,42.8843952 L19.1759474,45.7084654 L17.811025,46.586156 L17.811025,49.0863468 L15.4557734,51 C15.8463483,49.316246 15.8463483,48.1656466 15.4557734,47.5482019 C14.869911,46.6220348 11.7843189,45.2251927 11.322175,44.1598818 C10.1951618,41.5619478 11.4682754,42.2025277 10.6203144,39.2661434 C10.0550071,37.3085538 9.51490233,36.2593313 9,36.1184759 Z" id="Path-11"></path>
            </g>
        </g>
    </g>
</svg>