<?xml version="1.0" encoding="UTF-8"?>
<svg width="80px" height="119px" viewBox="0 0 80 119" version="1.1" xmlns="http://www.w3.org/2000/svg" xmlns:xlink="http://www.w3.org/1999/xlink">
    <!-- Generator: Sketch 50.2 (55047) - http://www.bohemiancoding.com/sketch -->
    <title>Group</title>
    <desc>Created with Sketch.</desc>
    <defs>
        <path d="M48.0003224,96.4460017 L47.2790026,90.3718484 L34.8397322,40.3774845 L33.6406903,40.3774845 C32.9214447,37.9317843 32.2461378,36.2626891 31.6147696,35.3701988 C30.9834014,34.4777086 29.749925,33.4485836 27.9143404,32.2828238 C25.539292,31.5442934 23.8777152,31.2232557 22.9296101,31.3197108 C21.5074524,31.4643933 21.5074524,32.2828238 18.6558241,33.2247348 C16.7547386,33.8526755 14.5352931,33.8526755 11.9974875,33.2247348 C10.6195065,31.1178578 9.93051607,29.0505856 9.93051607,27.0229183 C9.93051607,24.995251 10.6195065,22.9715859 11.9974875,20.9519228 C14.9290803,20.2978179 17.1485259,20.2978179 18.6558241,20.9519228 C20.1631223,21.6060277 21.5877177,22.1927673 22.9296101,22.7121416 L25.7959428,22.7121416 L31.6147696,18.6296249 L44.539431,19.440715 C50.1460228,21.7388403 54.1386188,23.6140913 56.5172191,25.0664681 C58.8958194,26.5188448 62.8688675,29.5074275 68.4363634,34.032216 L68.4363634,38.1282659 L61.9864382,34.032216 L68.4363634,41.0302361 L67.5210677,44.2750474 L66.0545194,44.2750474 L56.5172191,37.2301122 C54.5675662,36.3440611 53.1846231,35.72409 52.3683897,35.3701988 C51.5521564,35.0163077 49.855694,34.3011531 47.2790026,33.2247348 L47.2790026,38.1282659 L48.0003224,41.0302361 L55.4264428,88.1352608 L59.130932,97.921121 L54.4227302,100.982332 C52.3149933,100.538158 50.8943075,100.056977 50.160673,99.53879 C49.4270384,99.020603 48.7069216,97.9896735 48.0003224,96.4460017 Z" id="path-1"></path>
        <filter x="-12.6%" y="-6.6%" width="125.3%" height="118.0%" filterUnits="objectBoundingBox" id="filter-2">
            <feMorphology radius="0.4" operator="dilate" in="SourceAlpha" result="shadowSpreadOuter1"></feMorphology>
            <feOffset dx="0" dy="2" in="shadowSpreadOuter1" result="shadowOffsetOuter1"></feOffset>
            <feGaussianBlur stdDeviation="2" in="shadowOffsetOuter1" result="shadowBlurOuter1"></feGaussianBlur>
            <feComposite in="shadowBlurOuter1" in2="SourceAlpha" operator="out" result="shadowBlurOuter1"></feComposite>
            <feColorMatrix values="0 0 0 0 0   0 0 0 0 0   0 0 0 0 0  0 0 0 0.5 0" type="matrix" in="shadowBlurOuter1"></feColorMatrix>
        </filter>
    </defs>
    <g id="Welcome" stroke="none" stroke-width="1" fill="none" fill-rule="evenodd">
        <g id="Mobile-Portrait-Copy-2">
            <g id="Group" transform="translate(0.000000, -1.000000)">
                <rect id="Rectangle-2" fill="#F3E8C5" x="0" y="0" width="80" height="120"></rect>
                <g id="Path-2">
                    <use fill="black" fill-opacity="1" filter="url(#filter-2)" xlink:href="#path-1"></use>
                    <use stroke="#000000" stroke-width="0.8" fill="#8ABACF" fill-rule="evenodd" xlink:href="#path-1"></use>
                </g>
                <polygon id="Path-3" stroke="#000000" stroke-width="0.8" fill="#8ABACF" points="30.8167616 23.1964873 43.7157099 24.5788216 44.8664834 20.9717715 32.5205921 19.795736"></polygon>
                <path d="M67.2946121,44.1478353 C66.2888628,42.3580789 58.1664385,35.2536606 53.0184347,31.4081277 C49.5864321,28.8444391 46.4172564,27.1754942 43.5109074,26.4012931 L30.1928809,25.0136886 C27.2977776,25.5438895 25.0565286,25.8089899 23.4691338,25.8089899 C21.8817391,25.8089899 19.5265104,25.5438895 16.4034478,25.0136886 C16.2276351,27.1334885 16.2276351,28.6010893 16.4034478,29.4164911 C16.5792605,30.2318929 17.1751726,31.5280731 18.1911841,33.3050318 L22.5628602,31.4081277 L27.7054779,32.3013192 L31.3084681,34.6784265 L33.635277,39.952993 L45.1939869,40.7473921 L47.2866715,38.3050998 L47.2866715,33.3050318 L56.2307663,37.1245533 C64.277163,42.9999121 67.9651116,45.3410061 67.2946121,44.1478353 Z" id="Path-7" stroke="#000000" fill="#8ABACF"></path>
            </g>
        </g>
    </g>
</svg>