<?xml version="1.0" encoding="UTF-8"?>
<svg width="960px" height="115px" viewBox="0 0 960 115" version="1.1" xmlns="http://www.w3.org/2000/svg" xmlns:xlink="http://www.w3.org/1999/xlink">
    <!-- Generator: Sketch 50.2 (55047) - http://www.bohemiancoding.com/sketch -->
    <title>activitiesdesktop copy</title>
    <desc>Created with Sketch.</desc>
    <defs></defs>
    <g id="Symbols" stroke="none" stroke-width="1" fill="none" fill-rule="evenodd">
        <g id="activitiesdesktop-copy">
            <g id="activitiestablet-copy">
                <rect id="Rectangle-10-Copy-8" fill-opacity="0.540449502" fill="#000000" x="0" y="0" width="960" height="115"></rect>
                <g id="activities">
                    <rect id="Rectangle-Copy" fill-opacity="0.541213768" fill="#000000" fill-rule="evenodd" x="0" y="0" width="304.056398" height="115.214323"></rect>
                    <g stroke-width="1" fill-rule="evenodd" transform="translate(152.028199, 0.000000)" id="Rectangle-5">
                        <rect x="0" y="0" width="152.028199" height="115.214323"></rect>
                    </g>
                    <g id="yogagirl" stroke-width="1" fill-rule="evenodd">
                        <rect id="Rectangle-4" opacity="0.975390625" x="0" y="0" width="152.028199" height="115.214323"></rect>
                        <path d="M98.8183292,110.893786 L93.5923599,109.933667 L42.2828428,108.973548 L25.1796704,102.252712 L25.1796704,93.6116378 L15.2028199,91.2113394 L15.2028199,84.0104442 L17.5782605,84.0104442 L17.5782605,88.811041 L19.0035248,88.811041 L19.9537011,80.6500264 L21.8540536,80.6500264 L23.7544061,84.0104442 L27.0800229,85.4506232 L43.233019,72.0089521 L48.9340765,56.6470423 C49.001145,53.9689865 49.4762331,51.0886284 50.3593408,48.0059681 C51.6840025,43.3819776 51.7661371,41.0340786 54.1600458,38.4047745 C55.755985,36.6519051 57.6563374,35.5317658 59.8611033,35.0443567 L67.9376013,31.6839389 C68.2543267,30.5104597 68.4126895,29.5503404 68.4126895,28.8035809 C68.4126895,28.0568214 68.2543267,27.4167418 67.9376013,26.8833421 C66.2084958,24.2633647 65.2583195,21.2229867 65.0870726,17.7622082 C64.8302022,12.5710404 65.3028543,8.87918426 66.9874251,6.24077585 C67.9518703,4.73024252 69.0703748,3.69050614 70.5564274,3.07760424 C71.6660233,2.61996669 72.9805351,2.4002984 74.588835,2.4002984 C75.4861385,2.4002984 76.3461862,2.56414185 77.1689781,2.89182874 C78.1537115,3.28401082 79.5107417,4.40032653 81.2400687,6.24077585 C83.0596255,10.981481 83.8514391,14.8219585 83.6155093,17.7622082 C83.2616147,22.1725828 81.2549636,25.2565506 80.7649806,26.8833421 C80.2749976,28.5101337 80.2898925,27.6834416 80.2898925,28.8035809 C80.2898925,29.5503404 80.4482552,30.5104597 80.7649806,31.6839389 L88.8414787,35.0443567 C90.9631535,35.747962 93.0218687,37.3481609 95.0176242,39.8449535 C97.0133798,42.3417461 97.963556,45.3821241 97.868153,48.9660875 L98.8183292,56.6470423 L104.519387,72.0089521 L118.77203,86.4107426 L123.522912,86.4107426 L127.323616,84.0104442 L128.748881,85.4506232 L128.748881,91.2113394 L131.124321,90.25122 L132.074498,87.3708619 L133.97485,88.811041 L132.074498,93.6116378 L123.522912,95.5318765 L120.672383,94.5717571 L122.097647,99.8524136 L115.921502,107.533369 L110.695532,109.933667 L98.8183292,110.893786 Z" id="Path-18" stroke="#FFFFFF" stroke-width="0.621990369"></path>
                        <polygon id="Path-19" stroke="#FFFFFF" stroke-width="0.621990369" points="32.7810804 89.2911006 55.5853102 90.25122 57.4856627 78.249728 59.8611033 75.3693699 56.5354864 56.6470423 51.7846052 75.3693699 48.9340765 79.689907"></polygon>
                        <polygon id="Path-20" stroke="#FFFFFF" stroke-width="0.621990369" points="89.7916549 54.7268036 85.9909499 74.4092505 88.8414787 77.7696683 92.6421836 89.2911006 114.971325 90.7312797 97.3930648 79.689907 95.0176242 75.3693699"></polygon>
                        <path d="M59.8611033,75.3693699 L85.5158618,74.8893102 L89.3165668,54.7268036 L87.4162143,48.0059681 L85.9909499,34.564297 L82.6653331,32.6440583 C82.6484172,37.9014379 82.4900545,41.7419153 82.190245,44.1654906 C81.8904354,46.589066 81.2569846,49.1493843 80.2898925,51.8464455 C77.4393638,52.8065649 75.2222859,53.2866246 73.6386588,53.2866246 C72.0550317,53.2866246 70.1546792,52.8065649 67.9376013,51.8464455 C66.5916838,49.2872422 65.7998703,47.2069836 65.5621607,45.6056697 C65.3244511,44.0043558 65.1660884,39.6838186 65.0870726,32.6440583 L61.7614558,34.564297 L59.8611033,48.9660875 L57.0105745,58.0872214 L59.8611033,75.3693699 Z" id="Path-22" stroke="#FFFFFF" stroke-width="0.621990369"></path>
                        <path d="M69.8379538,101.292593 L68.4126895,109.453607 L88.8414787,109.453607 L92.1670955,108.013428 L98.3432411,110.893786 C100.39185,111.118499 100.708576,110.158379 99.2934173,108.013428 C97.1706798,104.796002 95.3574324,104.36172 93.5923599,103.692891 C91.8272873,103.024062 90.5258978,104.580279 87.8913024,103.692891 C86.1349055,103.101299 84.7096412,101.98116 83.6155093,100.332473 C82.4905882,99.1888102 81.0653238,98.7087506 79.3397162,98.8922943 C77.6141086,99.075838 76.0304816,99.8759374 74.588835,101.292593 L69.8379538,101.292593 Z" id="Path-23" stroke="#FFFFFF" stroke-width="0.621990369"></path>
                        <polygon id="Path-24" stroke="#FFFFFF" stroke-width="0.621990369" points="74.588835 101.292593 70.3130419 98.4122346 66.0372488 99.8524136 70.3130419 101.292593"></polygon>
                        <polygon id="Path-25" stroke="#FFFFFF" stroke-width="0.621990369" points="33.2561685 89.2911006 25.1796704 93.6116378 25.1796704 102.252712 42.2828428 108.973548 68.4126895 108.973548 69.8379538 101.292593"></polygon>
                        <path d="M114.496237,90.7312797 L120.672383,94.5717571 L122.097647,99.8524136 L115.921502,107.533369 L110.695532,109.933667 L100.243594,110.893786 C99.5238284,108.511734 98.7320149,106.911535 97.868153,106.093189 C97.004291,105.274844 95.2623013,104.474745 92.6421836,103.692891 C90.2491536,104.069829 88.1904385,103.90981 86.4660381,103.212831 C84.7416377,102.515853 83.6330987,101.395714 83.1404212,99.8524136 L114.496237,90.7312797 Z" id="Path-26" stroke="#FFFFFF" stroke-width="0.621990369"></path>
                        <path d="M80.2898925,4.80059681 L82.6653331,4.80059681 L84.5656856,7.20089521 L86.9411262,29.7637002 L88.3663905,31.6839389 L89.7916549,29.7637002 L89.7916549,27.8434615 L91.6920074,29.7637002 L92.6421836,31.6839389 L90.7418311,34.0842373 L88.3663905,35.0443567 L81.2400687,31.6839389 L81.2400687,25.4431631 C82.9827502,21.5377037 83.7745638,17.8572461 83.6155093,14.4017904 C83.4564549,10.9463347 82.3479159,7.74593688 80.2898925,4.80059681 Z" id="Path-29" stroke="#FFFFFF" stroke-width="0.621990369"></path>
                        <path d="M82.6653331,10.561313 C79.2719231,8.66731165 75.9513583,8.26726192 72.7036385,9.36116378 C69.4559187,10.4550656 66.9170634,12.7753541 65.0870726,16.3220292 C62.966007,12.5276949 62.6492816,9.8073567 64.1368964,8.16101458 C65.6245111,6.51467246 69.4252161,4.59443373 75.5390113,2.4002984 C77.8937116,3.61677421 79.4773387,4.57689357 80.2898925,5.28065649 C81.1024463,5.98441941 81.8942598,7.74463824 82.6653331,10.561313 Z" id="Path-30" stroke="#FFFFFF" stroke-width="0.621990369"></path>
                        <path d="M0.475088121,55.2068633 L48.9340765,55.2068633" id="Path-31" stroke="#FFFFFF" stroke-width="0.621990369"></path>
                        <polyline id="Path-32" stroke="#FFFFFF" stroke-width="0.621990369" points="98.8183292 54.2467439 151.553111 54.2467439 303.932442 54.2467439"></polyline>
                        <polyline id="Path-21" stroke="#FFFFFF" stroke-width="0.5" points="59.8611033 77.7696683 86.9411262 80.6500264 58.910927 84.9705635 86.9411262 84.0104442 74.588835 86.8908022 89.3165668 86.8908022 64.6119845 90.25122"></polyline>
                    </g>
                    <path d="" id="Path-64" stroke="#979797" stroke-width="1.24398074"></path>
                </g>
                <text id="Activities-Copy-2" font-family="Futura-Bold, Futura" font-size="44.7833066" font-weight="bold" fill="#FFFFFF">
                    <tspan x="536.785955" y="62.3333333">Activities</tspan>
                </text>
                <path d="M303.563403,54.4333333 L480.15086,54.4333333" id="Path-78-Copy-2" stroke="#979797" stroke-width="1.24398074"></path>
                <path d="M828.099188,54.4333333 L959.221959,54.4333333" id="Path-79-Copy-2" stroke="#979797" stroke-width="1.24398074"></path>
            </g>
        </g>
    </g>
</svg>