<?xml version="1.0" encoding="UTF-8"?>
<svg width="960px" height="115px" viewBox="0 0 960 115" version="1.1" xmlns="http://www.w3.org/2000/svg" xmlns:xlink="http://www.w3.org/1999/xlink">
    <!-- Generator: Sketch 50.2 (55047) - http://www.bohemiancoding.com/sketch -->
    <title>activitiesdesktop-active copy</title>
    <desc>Created with Sketch.</desc>
    <defs></defs>
    <g id="Symbols" stroke="none" stroke-width="1" fill="none" fill-rule="evenodd">
        <g id="activitiesdesktop-active-copy">
            <g id="activities-active-copy">
                <rect id="Rectangle-10-Copy-9" fill-opacity="0.540449502" fill="#000000" x="0" y="0" width="960" height="115"></rect>
                <g id="activities-copy-3">
                    <rect id="Rectangle-Copy" fill-opacity="0.541213768" fill="#000000" x="0" y="0" width="303.563403" height="115"></rect>
                    <g id="activities" transform="translate(151.781701, 0.000000)">
                        <rect id="Rectangle-5" x="0" y="0" width="151.781701" height="115"></rect>
                    </g>
                    <g id="yogagirl">
                        <rect id="Rectangle-4" opacity="0.975390625" x="0" y="0" width="151.781701" height="115"></rect>
                        <path d="M98.6581059,110.6875 L93.44061,109.729167 L42.2142857,108.770833 L25.1388443,102.0625 L25.1388443,93.4375 L15.1781701,91.0416667 L15.1781701,83.8541667 L17.5497592,83.8541667 L17.5497592,88.6458333 L18.9727127,88.6458333 L19.9213483,80.5 L21.8186196,80.5 L23.7158909,83.8541667 L27.0361156,85.2916667 L43.1629213,71.875 L48.8547352,56.5416667 C48.9216949,53.8685926 49.3960127,50.9935926 50.2776886,47.9166667 C51.6002024,43.3012778 51.6822039,40.9577464 54.0722311,38.3333333 C55.6655826,36.5837247 57.5628539,35.4656691 59.7640449,34.9791667 L67.8274478,31.625 C68.1436597,30.4537037 68.3017657,29.4953704 68.3017657,28.75 C68.3017657,28.0046296 68.1436597,27.3657407 67.8274478,26.8333333 C66.1011458,24.2182296 65.1525102,21.1835074 64.9815409,17.7291667 C64.725087,12.5476556 65.1969728,8.86266707 66.8788122,6.22916667 C67.8416937,4.72144325 68.9583847,3.68364101 70.4420278,3.07187924 C71.5498246,2.61509299 72.862205,2.39583333 74.4678973,2.39583333 C75.3637459,2.39583333 76.2223991,2.559372 77.0438569,2.88644932 C78.0269936,3.27790186 79.3818236,4.39214097 81.1083467,6.22916667 C82.9249533,10.9610531 83.715483,14.7943864 83.4799358,17.7291667 C83.126615,22.131337 81.1232175,25.209568 80.6340289,26.8333333 C80.1448403,28.4570987 80.1597111,27.6319444 80.1597111,28.75 C80.1597111,29.4953704 80.317817,30.4537037 80.6340289,31.625 L88.6974318,34.9791667 C90.8156665,35.6814631 92.8710437,37.2786853 94.8635634,39.7708333 C96.8560831,42.2629813 97.8047187,45.2977036 97.7094703,48.875 L98.6581059,56.5416667 L104.34992,71.875 L118.579454,86.25 L123.322632,86.25 L127.117175,83.8541667 L128.540128,85.2916667 L128.540128,91.0416667 L130.911717,90.0833333 L131.860353,87.2083333 L133.757624,88.6458333 L131.860353,93.4375 L123.322632,95.3541667 L120.476726,94.3958333 L121.899679,99.6666667 L115.733547,107.333333 L110.516051,109.729167 L98.6581059,110.6875 Z" id="Path-18" stroke="#A4E7EA" stroke-width="0.621990369"></path>
                        <polygon id="Path-19" stroke="#A4E7EA" stroke-width="0.621990369" points="32.7279294 89.125 55.4951846 90.0833333 57.3924559 78.1041667 59.7640449 75.2291667 56.4438202 56.5416667 51.7006421 75.2291667 48.8547352 79.5416667"></polygon>
                        <polygon id="Path-20" stroke="#A4E7EA" stroke-width="0.621990369" points="89.6460674 54.625 85.8515249 74.2708333 88.6974318 77.625 92.4919743 89.125 114.784912 90.5625 97.2351525 79.5416667 94.8635634 75.2291667"></polygon>
                        <path d="M59.7640449,75.2291667 L85.3772071,74.75 L89.1717496,54.625 L87.2744783,47.9166667 L85.8515249,34.5 L82.5313002,32.5833333 C82.5144117,37.830933 82.3563058,41.6642664 82.0569823,44.0833333 C81.7576589,46.5024003 81.1252351,49.0579559 80.1597111,51.75 C77.3138042,52.7083333 75.100321,53.1875 73.5192616,53.1875 C71.9382022,53.1875 70.040931,52.7083333 67.8274478,51.75 C66.4837126,49.1955574 65.6931829,47.1191685 65.4558587,45.5208333 C65.2185346,43.9224982 65.0604287,39.6099982 64.9815409,32.5833333 L61.6613162,34.5 L59.7640449,48.875 L56.918138,57.9791667 L59.7640449,75.2291667 Z" id="Path-22" stroke="#A4E7EA" stroke-width="0.621990369"></path>
                        <path d="M69.7247191,101.104167 L68.3017657,109.25 L88.6974318,109.25 L92.0176565,107.8125 L98.1837881,110.6875 C100.229076,110.911794 100.545288,109.953461 99.1324238,107.8125 C97.013128,104.601059 95.2028206,104.167585 93.44061,103.5 C91.6783993,102.832415 90.3791198,104.385738 87.7487961,103.5 C85.9952471,102.909508 84.5722936,101.791453 83.4799358,100.145833 C82.3568386,99.0042977 80.9338851,98.5251311 79.2110754,98.7083333 C77.4882657,98.8915356 75.9072063,99.6901467 74.4678973,101.104167 L69.7247191,101.104167 Z" id="Path-23" stroke="#A4E7EA" stroke-width="0.621990369"></path>
                        <polygon id="Path-24" stroke="#A4E7EA" stroke-width="0.621990369" points="74.4678973 101.104167 70.1990369 98.2291667 65.9301766 99.6666667 70.1990369 101.104167"></polygon>
                        <polygon id="Path-25" stroke="#A4E7EA" stroke-width="0.621990369" points="33.2022472 89.125 25.1388443 93.4375 25.1388443 102.0625 42.2142857 108.770833 68.3017657 108.770833 69.7247191 101.104167"></polygon>
                        <path d="M114.310594,90.5625 L120.476726,94.3958333 L121.899679,99.6666667 L115.733547,107.333333 L110.516051,109.729167 L100.081059,110.6875 C99.3624613,108.309879 98.5719316,106.712656 97.7094703,105.895833 C96.847009,105.07901 95.1078437,104.280399 92.4919743,103.5 C90.1028244,103.876237 88.0474472,103.716515 86.3258427,103.020833 C84.6042382,102.325152 83.4974967,101.207096 83.005618,99.6666667 L114.310594,90.5625 Z" id="Path-26" stroke="#A4E7EA" stroke-width="0.621990369"></path>
                        <path d="M80.1597111,4.79166667 L82.5313002,4.79166667 L84.4285714,7.1875 L86.8001605,29.7083333 L88.223114,31.625 L89.6460674,29.7083333 L89.6460674,27.7916667 L91.5433387,29.7083333 L92.4919743,31.625 L90.594703,34.0208333 L88.223114,34.9791667 L81.1083467,31.625 L81.1083467,25.3958333 C82.8482027,21.4976389 83.6387323,17.8240278 83.4799358,14.375 C83.3211392,10.9259722 82.2143977,7.73152777 80.1597111,4.79166667 Z" id="Path-29" stroke="#A4E7EA" stroke-width="0.621990369"></path>
                        <path d="M82.5313002,10.5416667 C79.1433923,8.65118859 75.8282113,8.25188304 72.5857573,9.34375 C69.3433034,10.435617 66.8085646,12.7515892 64.9815409,16.2916667 C62.8639144,12.5043907 62.5477025,9.7891129 64.0329053,8.14583333 C65.5181081,6.50255376 69.3126506,4.5858871 75.4165329,2.39583333 C77.7674154,3.61004623 79.3484748,4.56837956 80.1597111,5.27083333 C80.9709474,5.9732871 81.7614771,7.73023155 82.5313002,10.5416667 Z" id="Path-30" stroke="#A4E7EA" stroke-width="0.621990369"></path>
                        <path d="M0.474317817,55.1041667 L48.8547352,55.1041667" id="Path-31" stroke="#A4E7EA" stroke-width="0.621990369"></path>
                        <polyline id="Path-32" stroke="#A4E7EA" stroke-width="0.621990369" points="98.6581059 54.1458333 151.307384 54.1458333 303.439648 54.1458333"></polyline>
                        <polyline id="Path-21" stroke="#A4E7EA" stroke-width="0.5" points="59.7640449 77.625 86.8001605 80.5 58.8154093 84.8125 86.8001605 83.8541667 74.4678973 86.7291667 89.1717496 86.7291667 64.5072231 90.0833333"></polyline>
                    </g>
                    <path d="" id="Path-64" stroke="#979797" stroke-width="1.24398074"></path>
                </g>
                <text id="Activities" font-family="Futura-Bold, Futura" font-size="44.7833066" font-weight="bold" fill="#A4E7EA">
                    <tspan x="536.785955" y="62.3333333">Activities</tspan>
                </text>
                <path d="M303.563403,54.4333333 L480.15086,54.4333333" id="Path-78-Copy-3" stroke="#A4E7EA" stroke-width="1.24398074"></path>
                <path d="M828.099188,54.4333333 L959.221959,54.4333333" id="Path-79-Copy-3" stroke="#A4E7EA" stroke-width="1.24398074"></path>
            </g>
        </g>
    </g>
</svg>