<?xml version="1.0" encoding="UTF-8"?>
<svg width="199px" height="121px" viewBox="0 0 199 121" version="1.1" xmlns="http://www.w3.org/2000/svg" xmlns:xlink="http://www.w3.org/1999/xlink">
    <!-- Generator: Sketch 50.2 (55047) - http://www.bohemiancoding.com/sketch -->
    <title>COMMON GOOD Copy</title>
    <desc>Created with Sketch.</desc>
    <defs>
        <path d="M545.89415,53.2863136 C544.252545,49.5799116 542.22471,47.7267384 539.810585,47.7267384 C538.74837,47.7267384 537.764628,48.0839766 536.859331,48.7984638 C535.954034,49.5129509 535.175491,50.4841923 534.523677,51.712217 C533.871863,52.9402418 533.358869,54.4026857 532.98468,56.0995926 C532.61049,57.7964996 532.423398,59.6273454 532.423398,61.592185 C532.423398,63.6016801 532.61049,65.4548533 532.98468,67.1517602 C533.358869,68.8486671 533.877898,70.3222748 534.541783,71.5726272 C535.205667,72.8229797 535.984211,73.8053848 536.877437,74.5198719 C537.770664,75.2343591 538.736299,75.5915973 539.774373,75.5915973 C542.043651,75.5915973 544.083556,73.8054062 545.89415,70.2329706 L545.89415,85.772988 L545.169916,86.2418678 C544.08356,86.956355 543.069643,87.4810486 542.128134,87.8159644 C541.186625,88.1508803 540.257201,88.3183357 539.339833,88.3183357 C537.456815,88.3183357 535.652283,87.6596777 533.926184,86.3423421 C532.200084,85.0250064 530.679208,83.1718332 529.36351,80.7827669 C528.047811,78.3937005 526.991647,75.5581223 526.194986,72.275947 C525.398325,68.9937717 525,65.410226 525,61.5252022 C525,57.6401784 525.392289,54.07896 526.17688,50.8414402 C526.961471,47.6039204 528.0116,44.8129969 529.327298,42.468586 C530.642996,40.1241751 532.169908,38.2933292 533.908078,36.9759936 C535.646248,35.6586579 537.468886,35 539.376045,35 C540.462401,35 541.530635,35.2121102 542.58078,35.6363369 C543.630924,36.0605637 544.73537,36.7192216 545.89415,37.6123305 L545.89415,53.2863136 Z M556.97493,61.6591678 C556.97493,63.6686629 557.180128,65.5218361 557.590529,67.218743 C558.000931,68.91565 558.556171,70.3892576 559.256267,71.6396101 C559.956364,72.8899625 560.771119,73.8612039 561.700557,74.5533633 C562.629995,75.2455227 563.613737,75.5915973 564.651811,75.5915973 C565.689884,75.5915973 566.673626,75.2455227 567.603064,74.5533633 C568.532502,73.8612039 569.353293,72.8899625 570.06546,71.6396101 C570.777627,70.3892576 571.338902,68.91565 571.749304,67.218743 C572.159705,65.5218361 572.364903,63.6686629 572.364903,61.6591678 C572.364903,59.6496728 572.159705,57.7964996 571.749304,56.0995926 C571.338902,54.4026857 570.777627,52.9290781 570.06546,51.6787256 C569.353293,50.4283731 568.532502,49.4571317 567.603064,48.7649723 C566.673626,48.0728129 565.689884,47.7267384 564.651811,47.7267384 C563.613737,47.7267384 562.629995,48.0728129 561.700557,48.7649723 C560.771119,49.4571317 559.956364,50.4283731 559.256267,51.6787256 C558.556171,52.9290781 558.000931,54.4026857 557.590529,56.0995926 C557.180128,57.7964996 556.97493,59.6496728 556.97493,61.6591678 Z M549.551532,61.6591678 C549.551532,57.9081104 549.925716,54.4138742 550.674095,51.1763544 C551.422474,47.9388345 552.460532,45.11442 553.788301,42.7030259 C555.11607,40.2916318 556.703333,38.4049675 558.550139,37.0429764 C560.396945,35.6809853 562.430815,35 564.651811,35 C566.848665,35 568.8765,35.6809853 570.735376,37.0429764 C572.594253,38.4049675 574.193587,40.2916318 575.533426,42.7030259 C576.873266,45.11442 577.917359,47.9388345 578.665738,51.1763544 C579.414117,54.4138742 579.788301,57.9081104 579.788301,61.6591678 C579.788301,65.4102253 579.414117,68.9044615 578.665738,72.1419813 C577.917359,75.3795011 576.873266,78.2039157 575.533426,80.6153098 C574.193587,83.0267039 572.594253,84.9133681 570.735376,86.2753592 C568.8765,87.6373503 566.848665,88.3183357 564.651811,88.3183357 C562.430815,88.3183357 560.396945,87.6373503 558.550139,86.2753592 C556.703333,84.9133681 555.11607,83.0267039 553.788301,80.6153098 C552.460532,78.2039157 551.422474,75.3795011 550.674095,72.1419813 C549.925716,68.9044615 549.551532,65.4102253 549.551532,61.6591678 Z M583.047354,86.9116962 L587.682451,36.4066395 L594.707521,36.4066395 L600.175487,63.3337387 L605.607242,36.4066395 L612.632312,36.4066395 L617.267409,86.9116962 L610.206128,86.9116962 L607.852368,57.8411463 L601.406685,86.9116962 L598.582173,86.9116962 L592.462396,57.8411463 L590.108635,86.9116962 L583.047354,86.9116962 Z M620.526462,86.9116962 L625.16156,36.4066395 L632.18663,36.4066395 L637.654596,63.3337387 L643.086351,36.4066395 L650.111421,36.4066395 L654.746518,86.9116962 L647.685237,86.9116962 L645.331476,57.8411463 L638.885794,86.9116962 L636.061281,86.9116962 L629.941504,57.8411463 L627.587744,86.9116962 L620.526462,86.9116962 Z M665.428969,61.6591678 C665.428969,63.6686629 665.634167,65.5218361 666.044568,67.218743 C666.45497,68.91565 667.01021,70.3892576 667.710306,71.6396101 C668.410403,72.8899625 669.225158,73.8612039 670.154596,74.5533633 C671.084034,75.2455227 672.067776,75.5915973 673.10585,75.5915973 C674.143923,75.5915973 675.127665,75.2455227 676.057103,74.5533633 C676.986541,73.8612039 677.807332,72.8899625 678.519499,71.6396101 C679.231666,70.3892576 679.792941,68.91565 680.203343,67.218743 C680.613744,65.5218361 680.818942,63.6686629 680.818942,61.6591678 C680.818942,59.6496728 680.613744,57.7964996 680.203343,56.0995926 C679.792941,54.4026857 679.231666,52.9290781 678.519499,51.6787256 C677.807332,50.4283731 676.986541,49.4571317 676.057103,48.7649723 C675.127665,48.0728129 674.143923,47.7267384 673.10585,47.7267384 C672.067776,47.7267384 671.084034,48.0728129 670.154596,48.7649723 C669.225158,49.4571317 668.410403,50.4283731 667.710306,51.6787256 C667.01021,52.9290781 666.45497,54.4026857 666.044568,56.0995926 C665.634167,57.7964996 665.428969,59.6496728 665.428969,61.6591678 Z M658.005571,61.6591678 C658.005571,57.9081104 658.379755,54.4138742 659.128134,51.1763544 C659.876513,47.9388345 660.914571,45.11442 662.24234,42.7030259 C663.570109,40.2916318 665.157372,38.4049675 667.004178,37.0429764 C668.850984,35.6809853 670.884854,35 673.10585,35 C675.302704,35 677.330539,35.6809853 679.189415,37.0429764 C681.048292,38.4049675 682.647626,40.2916318 683.987465,42.7030259 C685.327305,45.11442 686.371398,47.9388345 687.119777,51.1763544 C687.868156,54.4138742 688.24234,57.9081104 688.24234,61.6591678 C688.24234,65.4102253 687.868156,68.9044615 687.119777,72.1419813 C686.371398,75.3795011 685.327305,78.2039157 683.987465,80.6153098 C682.647626,83.0267039 681.048292,84.9133681 679.189415,86.2753592 C677.330539,87.6373503 675.302704,88.3183357 673.10585,88.3183357 C670.884854,88.3183357 668.850984,87.6373503 667.004178,86.2753592 C665.157372,84.9133681 663.570109,83.0267039 662.24234,80.6153098 C660.914571,78.2039157 659.876513,75.3795011 659.128134,72.1419813 C658.379755,68.9044615 658.005571,65.4102253 658.005571,61.6591678 Z M692.732591,86.9116962 L692.732591,36.4066395 L699.830084,36.4066395 L712.938719,67.2857259 L712.938719,36.4066395 L720,36.4066395 L720,86.9116962 L712.938719,86.9116962 L699.830084,56.0326098 L699.830084,86.9116962 L692.732591,86.9116962 Z M573.011067,118.803219 L587.097418,118.803219 C587.097418,121.482546 587.037066,123.916231 586.91636,126.104348 C586.795653,128.292465 586.554244,130.324257 586.192126,132.199786 C585.685159,134.834457 584.997144,137.167669 584.128059,139.199492 C583.258974,141.231315 582.239021,142.928196 581.06817,144.290187 C579.897319,145.652178 578.611817,146.690402 577.211624,147.404889 C575.811432,148.119376 574.338837,148.476614 572.793797,148.476614 C570.669367,148.476614 568.73206,147.82912 566.981819,146.534112 C565.231578,145.239104 563.728808,143.419422 562.473463,141.075011 C561.218118,138.7306 560.240411,135.917349 559.540315,132.635174 C558.840219,129.352999 558.490176,125.724798 558.490176,121.750464 C558.490176,117.820784 558.834183,114.214911 559.522209,110.932736 C560.210235,107.650561 561.187941,104.848474 562.455357,102.52639 C563.722773,100.204307 565.249684,98.3957888 567.036137,97.1007809 C568.82259,95.805773 570.814213,95.1582787 573.011067,95.1582787 C575.859735,95.1582787 578.358317,96.2969755 580.506889,98.5744032 C582.65546,100.851831 584.357393,104.379558 585.612738,109.157691 L578.877362,114.315369 C578.24969,111.546732 577.434935,109.559594 576.433073,108.353897 C575.431211,107.1482 574.290554,106.54536 573.011067,106.54536 C571.948852,106.54536 570.983216,106.913762 570.114131,107.650577 C569.245046,108.387392 568.502714,109.436779 567.887112,110.79877 C567.27151,112.160762 566.788692,113.801825 566.438644,115.722009 C566.088596,117.642193 565.913574,119.785622 565.913574,122.152361 C565.913574,124.295822 566.064455,126.28296 566.36622,128.113833 C566.667986,129.944706 567.120628,131.529951 567.724159,132.869614 C568.32769,134.209278 569.076058,135.247501 569.969284,135.984316 C570.862511,136.721131 571.900569,137.089533 573.083491,137.089533 C573.783587,137.089533 574.459532,136.944405 575.111346,136.654144 C575.76316,136.363884 576.348576,135.895009 576.867613,135.247505 C577.38665,134.600001 577.815151,133.762724 578.153128,132.735648 C578.491106,131.708573 578.720444,130.458239 578.841151,128.98461 L573.011067,128.98461 L573.011067,118.803219 Z M598.182236,121.494477 C598.182236,123.503972 598.387434,125.357145 598.797835,127.054052 C599.208236,128.750959 599.763477,130.224567 600.463573,131.474919 C601.163669,132.725272 601.978424,133.696513 602.907863,134.388672 C603.837301,135.080832 604.821042,135.426906 605.859116,135.426906 C606.89719,135.426906 607.880931,135.080832 608.81037,134.388672 C609.739808,133.696513 610.560598,132.725272 611.272765,131.474919 C611.984932,130.224567 612.546208,128.750959 612.956609,127.054052 C613.367011,125.357145 613.572208,123.503972 613.572208,121.494477 C613.572208,119.484982 613.367011,117.631809 612.956609,115.934902 C612.546208,114.237995 611.984932,112.764387 611.272765,111.514035 C610.560598,110.263682 609.739808,109.292441 608.81037,108.600281 C607.880931,107.908122 606.89719,107.562048 605.859116,107.562048 C604.821042,107.562048 603.837301,107.908122 602.907863,108.600281 C601.978424,109.292441 601.163669,110.263682 600.463573,111.514035 C599.763477,112.764387 599.208236,114.237995 598.797835,115.934902 C598.387434,117.631809 598.182236,119.484982 598.182236,121.494477 Z M590.739975,121.817447 C590.739975,118.066389 591.114159,114.572153 591.862537,111.334633 C592.610916,108.097113 593.648975,105.272699 594.976743,102.861305 C596.304512,100.449911 597.891776,98.5632463 599.738582,97.2012552 C601.585388,95.8392641 603.619258,95.1582787 605.840253,95.1582787 C608.037107,95.1582787 610.064942,95.8392641 611.923819,97.2012552 C613.782695,98.5632463 615.382029,100.449911 616.721869,102.861305 C618.061708,105.272699 619.105802,108.097113 619.854181,111.334633 C620.60256,114.572153 620.976743,118.066389 620.976743,121.817447 C620.976743,125.568504 620.60256,129.06274 619.854181,132.30026 C619.105802,135.53778 618.061708,138.362194 616.721869,140.773589 C615.382029,143.184983 613.782695,145.071647 611.923819,146.433638 C610.064942,147.795629 608.037107,148.476614 605.840253,148.476614 C603.619258,148.476614 601.585388,147.795629 599.738582,146.433638 C597.891776,145.071647 596.304512,143.184983 594.976743,140.773589 C593.648975,138.362194 592.610916,135.53778 591.862537,132.30026 C591.114159,129.06274 590.739975,125.568504 590.739975,121.817447 Z M631.672412,121.494477 C631.672412,123.503972 631.877609,125.357145 632.288011,127.054052 C632.698412,128.750959 633.253652,130.224567 633.953749,131.474919 C634.653845,132.725272 635.4686,133.696513 636.398039,134.388672 C637.327477,135.080832 638.311218,135.426906 639.349292,135.426906 C640.387366,135.426906 641.371107,135.080832 642.300545,134.388672 C643.229984,133.696513 644.050774,132.725272 644.762941,131.474919 C645.475108,130.224567 646.036384,128.750959 646.446785,127.054052 C646.857186,125.357145 647.062384,123.503972 647.062384,121.494477 C647.062384,119.484982 646.857186,117.631809 646.446785,115.934902 C646.036384,114.237995 645.475108,112.764387 644.762941,111.514035 C644.050774,110.263682 643.229984,109.292441 642.300545,108.600281 C641.371107,107.908122 640.387366,107.562048 639.349292,107.562048 C638.311218,107.562048 637.327477,107.908122 636.398039,108.600281 C635.4686,109.292441 634.653845,110.263682 633.953749,111.514035 C633.253652,112.764387 632.698412,114.237995 632.288011,115.934902 C631.877609,117.631809 631.672412,119.484982 631.672412,121.494477 Z M624.23015,121.817447 C624.23015,118.066389 624.604334,114.572153 625.352713,111.334633 C626.101092,108.097113 627.13915,105.272699 628.466919,102.861305 C629.794688,100.449911 631.381952,98.5632463 633.228758,97.2012552 C635.075564,95.8392641 637.109434,95.1582787 639.330429,95.1582787 C641.527283,95.1582787 643.555118,95.8392641 645.413994,97.2012552 C647.272871,98.5632463 648.872205,100.449911 650.212045,102.861305 C651.551884,105.272699 652.595978,108.097113 653.344357,111.334633 C654.092735,114.572153 654.466919,118.066389 654.466919,121.817447 C654.466919,125.568504 654.092735,129.06274 653.344357,132.30026 C652.595978,135.53778 651.551884,138.362194 650.212045,140.773589 C648.872205,143.184983 647.272871,145.071647 645.413994,146.433638 C643.555118,147.795629 641.527283,148.476614 639.330429,148.476614 C637.109434,148.476614 635.075564,147.795629 633.228758,146.433638 C631.381952,145.071647 629.794688,143.184983 628.466919,140.773589 C627.13915,138.362194 626.101092,135.53778 625.352713,132.30026 C624.604334,129.06274 624.23015,125.568504 624.23015,121.817447 Z M665.782776,135.828803 L667.412302,135.828803 C668.643506,135.828803 669.741917,135.471565 670.707567,134.757078 C671.673217,134.042591 672.487972,133.060186 673.151857,131.809833 C673.815741,130.559481 674.3227,129.07471 674.672748,127.355475 C675.022796,125.63624 675.197818,123.749576 675.197818,121.695425 C675.197818,119.68593 675.016761,117.81043 674.654642,116.068867 C674.292523,114.327305 673.77953,112.83137 673.115645,111.581018 C672.451761,110.330665 671.637006,109.34826 670.671355,108.633773 C669.705705,107.919286 668.619365,107.562048 667.412302,107.562048 L665.782776,107.562048 L665.782776,135.828803 Z M658.960703,96.3986556 L669.462096,96.3986556 C671.320972,96.3986556 673.065152,97.0908046 674.694686,98.4751235 C676.324221,99.8594423 677.748534,101.701452 678.967667,104.001207 C680.1868,106.300963 681.146401,108.980249 681.846497,112.039147 C682.546593,115.098045 682.896636,118.302026 682.896636,121.651184 C682.896636,124.955687 682.552629,128.13734 681.864603,131.196238 C681.176577,134.255136 680.223012,136.945586 679.003879,139.267669 C677.784745,141.589752 676.360433,143.442926 674.730898,144.827244 C673.101364,146.211563 671.345114,146.903712 669.462096,146.903712 L658.960703,146.903712 L658.960703,96.3986556 Z" id="path-1"></path>
        <filter x="-2.7%" y="-2.9%" width="105.4%" height="111.0%" filterUnits="objectBoundingBox" id="filter-2">
            <feMorphology radius="0.25" operator="dilate" in="SourceAlpha" result="shadowSpreadOuter1"></feMorphology>
            <feOffset dx="0" dy="4" in="shadowSpreadOuter1" result="shadowOffsetOuter1"></feOffset>
            <feGaussianBlur stdDeviation="1" in="shadowOffsetOuter1" result="shadowBlurOuter1"></feGaussianBlur>
            <feComposite in="shadowBlurOuter1" in2="SourceAlpha" operator="out" result="shadowBlurOuter1"></feComposite>
            <feColorMatrix values="0 0 0 0 0   0 0 0 0 0   0 0 0 0 0  0 0 0 0.5 0" type="matrix" in="shadowBlurOuter1"></feColorMatrix>
        </filter>
    </defs>
    <g id="Welcome" stroke="none" stroke-width="1" fill="none" fill-rule="evenodd">
        <g id="Desktop-HD" transform="translate(-523.000000, -34.000000)">
            <g id="COMMON-GOOD-Copy">
                <use fill="black" fill-opacity="1" filter="url(#filter-2)" xlink:href="#path-1"></use>
                <use fill="#8ABACF" fill-rule="evenodd" xlink:href="#path-1"></use>
            </g>
        </g>
    </g>
</svg>