<?xml version="1.0" encoding="UTF-8"?>
<svg width="153px" height="91px" viewBox="0 0 153 91" version="1.1" xmlns="http://www.w3.org/2000/svg" xmlns:xlink="http://www.w3.org/1999/xlink">
    <!-- Generator: Sketch 50.2 (55047) - http://www.bohemiancoding.com/sketch -->
    <title>COMMON GOOD Copy</title>
    <desc>Created with Sketch.</desc>
    <defs>
        <path d="M101.829648,31.8539211 C100.585949,29.0459084 99.0496383,27.6419231 97.2206692,27.6419231 C96.4159228,27.6419231 95.6706291,27.9125709 94.9847657,28.4538746 C94.2989023,28.9951782 93.7090686,29.7310018 93.2152469,30.6613675 C92.7214253,31.5917331 92.3327752,32.6996974 92.049285,33.9852936 C91.7657948,35.2708898 91.6240518,36.6579596 91.6240518,38.1465447 C91.6240518,39.6689612 91.7657948,41.0729465 92.049285,42.3585427 C92.3327752,43.6441388 92.7259976,44.7605609 93.2289641,45.7078423 C93.7319306,46.6551237 94.3217643,47.399405 94.9984829,47.9407087 C95.6752014,48.4820123 96.4067781,48.7526601 97.1932348,48.7526601 C98.9124657,48.7526601 100.457921,47.3994213 101.829648,44.692903 L101.829648,56.4661986 L101.28096,56.8214273 C100.457924,57.362731 99.6897687,57.7602449 98.9764707,58.013981 C98.2631728,58.2677171 97.5590303,58.3945832 96.864022,58.3945832 C95.4374261,58.3945832 94.0702922,57.8955764 92.7625794,56.8975478 C91.4548665,55.8995192 90.3026332,54.4955339 89.3058451,52.6855498 C88.3090569,50.8755657 87.508895,48.727299 86.9053352,46.2406854 C86.3017754,43.7540717 86,41.0391363 86,38.0957977 C86,35.1524591 86.297203,32.4544391 86.891618,30.001657 C87.4860329,27.5488748 88.2816225,25.4344391 89.2784107,23.6582865 C90.2751988,21.8821339 91.4320044,20.495064 92.7488622,19.4970354 C94.0657199,18.4990068 95.4465708,18 96.8914564,18 C97.7144925,18 98.5237992,18.1606971 99.3194007,18.4820962 C100.115002,18.8034952 100.951743,19.302502 101.829648,19.9791316 L101.829648,31.8539211 Z M110.224574,38.1972916 C110.224574,39.7197081 110.380034,41.1236934 110.690959,42.4092896 C111.001884,43.6948858 111.42254,44.8113078 111.952941,45.7585892 C112.483343,46.7058706 113.10061,47.4416942 113.804763,47.9660822 C114.508916,48.4904701 115.25421,48.7526601 116.040667,48.7526601 C116.827124,48.7526601 117.572417,48.4904701 118.27657,47.9660822 C118.980724,47.4416942 119.602564,46.7058706 120.14211,45.7585892 C120.681655,44.8113078 121.106884,43.6948858 121.417809,42.4092896 C121.728734,41.1236934 121.884194,39.7197081 121.884194,38.1972916 C121.884194,36.6748751 121.728734,35.2708898 121.417809,33.9852936 C121.106884,32.6996974 120.681655,31.5832754 120.14211,30.635994 C119.602564,29.6887126 118.980724,28.952889 118.27657,28.4285011 C117.572417,27.9041132 116.827124,27.6419231 116.040667,27.6419231 C115.25421,27.6419231 114.508916,27.9041132 113.804763,28.4285011 C113.10061,28.952889 112.483343,29.6887126 111.952941,30.635994 C111.42254,31.5832754 111.001884,32.6996974 110.690959,33.9852936 C110.380034,35.2708898 110.224574,36.6748751 110.224574,38.1972916 Z M104.600523,38.1972916 C104.600523,35.3554474 104.884008,32.708174 105.450989,30.2553918 C106.017969,27.8026096 106.804414,25.6628007 107.810347,23.8359008 C108.81628,22.009001 110.018809,20.5796425 111.417971,19.5477824 C112.817132,18.5159223 114.358015,18 116.040667,18 C117.705029,18 119.24134,18.5159223 120.649646,19.5477824 C122.057952,20.5796425 123.269626,22.009001 124.284704,23.8359008 C125.299782,25.6628007 126.090799,27.8026096 126.657779,30.2553918 C127.22476,32.708174 127.508246,35.3554474 127.508246,38.1972916 C127.508246,41.0391358 127.22476,43.6864093 126.657779,46.1391915 C126.090799,48.5919736 125.299782,50.7317826 124.284704,52.5586824 C123.269626,54.3855822 122.057952,55.8149407 120.649646,56.8468008 C119.24134,57.8786609 117.705029,58.3945832 116.040667,58.3945832 C114.358015,58.3945832 112.817132,57.8786609 111.417971,56.8468008 C110.018809,55.8149407 108.81628,54.3855822 107.810347,52.5586824 C106.804414,50.7317826 106.017969,48.5919736 105.450989,46.1391915 C104.884008,43.6864093 104.600523,41.0391358 104.600523,38.1972916 Z M129.977342,57.328897 L133.488945,19.0656862 L138.811218,19.0656862 L142.953812,39.4659657 L147.068972,19.0656862 L152.391246,19.0656862 L155.902849,57.328897 L150.553141,57.328897 L148.769905,35.3047147 L143.886582,57.328897 L141.746699,57.328897 L137.110285,35.3047147 L135.327049,57.328897 L129.977342,57.328897 Z M158.371945,57.328897 L161.883548,19.0656862 L167.205821,19.0656862 L171.348415,39.4659657 L175.463575,19.0656862 L180.785849,19.0656862 L184.297452,57.328897 L178.947744,57.328897 L177.164508,35.3047147 L172.281185,57.328897 L170.141302,57.328897 L165.504888,35.3047147 L163.721652,57.328897 L158.371945,57.328897 Z M192.390599,38.1972916 C192.390599,39.7197081 192.546059,41.1236934 192.856984,42.4092896 C193.167909,43.6948858 193.588565,44.8113078 194.118967,45.7585892 C194.649368,46.7058706 195.266635,47.4416942 195.970788,47.9660822 C196.674942,48.4904701 197.420235,48.7526601 198.206692,48.7526601 C198.993149,48.7526601 199.738442,48.4904701 200.442595,47.9660822 C201.146749,47.4416942 201.768589,46.7058706 202.308135,45.7585892 C202.847681,44.8113078 203.272909,43.6948858 203.583834,42.4092896 C203.894759,41.1236934 204.050219,39.7197081 204.050219,38.1972916 C204.050219,36.6748751 203.894759,35.2708898 203.583834,33.9852936 C203.272909,32.6996974 202.847681,31.5832754 202.308135,30.635994 C201.768589,29.6887126 201.146749,28.952889 200.442595,28.4285011 C199.738442,27.9041132 198.993149,27.6419231 198.206692,27.6419231 C197.420235,27.6419231 196.674942,27.9041132 195.970788,28.4285011 C195.266635,28.952889 194.649368,29.6887126 194.118967,30.635994 C193.588565,31.5832754 193.167909,32.6996974 192.856984,33.9852936 C192.546059,35.2708898 192.390599,36.6748751 192.390599,38.1972916 Z M186.766548,38.1972916 C186.766548,35.3554474 187.050034,32.708174 187.617014,30.2553918 C188.183994,27.8026096 188.970439,25.6628007 189.976372,23.8359008 C190.982305,22.009001 192.184834,20.5796425 193.583996,19.5477824 C194.983157,18.5159223 196.52404,18 198.206692,18 C199.871054,18 201.407365,18.5159223 202.815671,19.5477824 C204.223977,20.5796425 205.435651,22.009001 206.450729,23.8359008 C207.465807,25.6628007 208.256824,27.8026096 208.823804,30.2553918 C209.390785,32.708174 209.674271,35.3554474 209.674271,38.1972916 C209.674271,41.0391358 209.390785,43.6864093 208.823804,46.1391915 C208.256824,48.5919736 207.465807,50.7317826 206.450729,52.5586824 C205.435651,54.3855822 204.223977,55.8149407 202.815671,56.8468008 C201.407365,57.8786609 199.871054,58.3945832 198.206692,58.3945832 C196.52404,58.3945832 194.983157,57.8786609 193.583996,56.8468008 C192.184834,55.8149407 190.982305,54.3855822 189.976372,52.5586824 C188.970439,50.7317826 188.183994,48.5919736 187.617014,46.1391915 C187.050034,43.6864093 186.766548,41.0391358 186.766548,38.1972916 Z M213.076136,57.328897 L213.076136,19.0656862 L218.453278,19.0656862 L228.384531,42.4600366 L228.384531,19.0656862 L233.734239,19.0656862 L233.734239,57.328897 L228.384531,57.328897 L218.453278,33.9345467 L218.453278,57.328897 L213.076136,57.328897 Z M122.373736,81.4902809 L133.045717,81.4902809 C133.045717,83.5201696 132.999993,85.3639575 132.908545,87.0216999 C132.817096,88.6794424 132.634202,90.2187515 132.359857,91.6396736 C131.975773,93.6357308 131.454525,95.4033991 130.796096,96.9427313 C130.137667,98.4820636 129.364939,99.7676405 128.477889,100.799501 C127.590839,101.831361 126.616928,102.617931 125.556126,103.159234 C124.495324,103.700538 123.379669,103.971186 122.209129,103.971186 C120.599636,103.971186 119.131911,103.480637 117.805908,102.499524 C116.479906,101.518411 115.341389,100.139799 114.390326,98.3636463 C113.439262,96.5874937 112.69854,94.4561426 112.168139,91.9695289 C111.637738,89.4829152 111.372542,86.7341488 111.372542,83.7231473 C111.372542,80.7459772 111.633166,78.0141263 112.154422,75.5275126 C112.675678,73.0408989 113.4164,70.9180055 114.376608,69.1587686 C115.336817,67.3995318 116.493623,66.0293774 117.84706,65.0482646 C119.200497,64.0671517 120.709374,63.5766026 122.373736,63.5766026 C124.531919,63.5766026 126.424874,64.4392924 128.052656,66.1646978 C129.680439,67.8901032 130.969843,70.5627499 131.920907,74.1827181 L126.818108,78.0902343 C126.342576,75.9926826 125.725309,74.4872044 124.966286,73.5737545 C124.207264,72.6603046 123.343089,72.2035865 122.373736,72.2035865 C121.568989,72.2035865 120.837413,72.482692 120.178984,73.0409114 C119.520555,73.5991308 118.958155,74.3941586 118.491768,75.4260187 C118.025381,76.4578788 117.659593,77.7011669 117.394392,79.1559205 C117.129192,80.6106741 116.996593,82.2345607 116.996593,84.027629 C116.996593,85.65154 117.110902,87.1570182 117.339523,88.5441088 C117.568145,89.9311994 117.911071,91.1321989 118.368313,92.1471433 C118.825556,93.1620876 119.392528,93.9486577 120.069246,94.5068771 C120.745965,95.0650965 121.53241,95.344202 122.428604,95.344202 C122.959005,95.344202 123.471109,95.2342513 123.964931,95.0143467 C124.458752,94.7944421 124.902271,94.4392169 125.295499,93.9486605 C125.688728,93.458104 126.013365,92.8237733 126.26942,92.0456493 C126.525476,91.2675253 126.699225,90.3202581 126.790674,89.2038194 L122.373736,89.2038194 L122.373736,81.4902809 Z M141.443702,83.5292087 C141.443702,85.0516253 141.599162,86.4556106 141.910087,87.7412067 C142.221012,89.0268029 142.641668,90.143225 143.172069,91.0905064 C143.70247,92.0377878 144.319738,92.7736114 145.023891,93.2979993 C145.728044,93.8223872 146.473338,94.0845772 147.259795,94.0845772 C148.046251,94.0845772 148.791545,93.8223872 149.495698,93.2979993 C150.199851,92.7736114 150.821692,92.0377878 151.361237,91.0905064 C151.900783,90.143225 152.326012,89.0268029 152.636937,87.7412067 C152.947862,86.4556106 153.103322,85.0516253 153.103322,83.5292087 C153.103322,82.0067922 152.947862,80.6028069 152.636937,79.3172107 C152.326012,78.0316146 151.900783,76.9151925 151.361237,75.9679111 C150.821692,75.0206297 150.199851,74.2848061 149.495698,73.7604182 C148.791545,73.2360303 148.046251,72.9738403 147.259795,72.9738403 C146.473338,72.9738403 145.728044,73.2360303 145.023891,73.7604182 C144.319738,74.2848061 143.70247,75.0206297 143.172069,75.9679111 C142.641668,76.9151925 142.221012,78.0316146 141.910087,79.3172107 C141.599162,80.6028069 141.443702,82.0067922 141.443702,83.5292087 Z M135.80536,83.7738942 C135.80536,80.93205 136.088846,78.2847766 136.655826,75.8319944 C137.222806,73.3792122 138.009251,71.2394033 139.015184,69.4125035 C140.021117,67.5856036 141.223646,66.1562451 142.622808,65.124385 C144.021969,64.0925249 145.562852,63.5766026 147.245504,63.5766026 C148.909866,63.5766026 150.446177,64.0925249 151.854483,65.124385 C153.262789,66.1562451 154.474463,67.5856036 155.489541,69.4125035 C156.504619,71.2394033 157.295636,73.3792122 157.862616,75.8319944 C158.429597,78.2847766 158.713083,80.93205 158.713083,83.7738942 C158.713083,86.6157384 158.429597,89.2630119 157.862616,91.7157941 C157.295636,94.1685763 156.504619,96.3083852 155.489541,98.135285 C154.474463,99.9621848 153.262789,101.391543 151.854483,102.423403 C150.446177,103.455264 148.909866,103.971186 147.245504,103.971186 C145.562852,103.971186 144.021969,103.455264 142.622808,102.423403 C141.223646,101.391543 140.021117,99.9621848 139.015184,98.135285 C138.009251,96.3083852 137.222806,94.1685763 136.655826,91.7157941 C136.088846,89.2630119 135.80536,86.6157384 135.80536,83.7738942 Z M166.816244,83.5292087 C166.816244,85.0516253 166.971704,86.4556106 167.282629,87.7412067 C167.593553,89.0268029 168.01421,90.143225 168.544611,91.0905064 C169.075012,92.0377878 169.69228,92.7736114 170.396433,93.2979993 C171.100586,93.8223872 171.84588,94.0845772 172.632336,94.0845772 C173.418793,94.0845772 174.164087,93.8223872 174.86824,93.2979993 C175.572393,92.7736114 176.194233,92.0377878 176.733779,91.0905064 C177.273325,90.143225 177.698554,89.0268029 178.009479,87.7412067 C178.320403,86.4556106 178.475863,85.0516253 178.475863,83.5292087 C178.475863,82.0067922 178.320403,80.6028069 178.009479,79.3172107 C177.698554,78.0316146 177.273325,76.9151925 176.733779,75.9679111 C176.194233,75.0206297 175.572393,74.2848061 174.86824,73.7604182 C174.164087,73.2360303 173.418793,72.9738403 172.632336,72.9738403 C171.84588,72.9738403 171.100586,73.2360303 170.396433,73.7604182 C169.69228,74.2848061 169.075012,75.0206297 168.544611,75.9679111 C168.01421,76.9151925 167.593553,78.0316146 167.282629,79.3172107 C166.971704,80.6028069 166.816244,82.0067922 166.816244,83.5292087 Z M161.177901,83.7738942 C161.177901,80.93205 161.461387,78.2847766 162.028368,75.8319944 C162.595348,73.3792122 163.381793,71.2394033 164.387726,69.4125035 C165.393659,67.5856036 166.596188,66.1562451 167.995349,65.124385 C169.394511,64.0925249 170.935394,63.5766026 172.618046,63.5766026 C174.282407,63.5766026 175.818718,64.0925249 177.227025,65.124385 C178.635331,66.1562451 179.847005,67.5856036 180.862083,69.4125035 C181.87716,71.2394033 182.668178,73.3792122 183.235158,75.8319944 C183.802138,78.2847766 184.085624,80.93205 184.085624,83.7738942 C184.085624,86.6157384 183.802138,89.2630119 183.235158,91.7157941 C182.668178,94.1685763 181.87716,96.3083852 180.862083,98.135285 C179.847005,99.9621848 178.635331,101.391543 177.227025,102.423403 C175.818718,103.455264 174.282407,103.971186 172.618046,103.971186 C170.935394,103.971186 169.394511,103.455264 167.995349,102.423403 C166.596188,101.391543 165.393659,99.9621848 164.387726,98.135285 C163.381793,96.3083852 162.595348,94.1685763 162.028368,91.7157941 C161.461387,89.2630119 161.177901,86.6157384 161.177901,83.7738942 Z M192.658647,94.389059 L193.893195,94.389059 C194.82597,94.389059 195.658138,94.1184112 196.389726,93.5771076 C197.121313,93.0358039 197.738581,92.2915226 198.241548,91.3442412 C198.744514,90.3969598 199.128592,89.27208 199.393792,87.9695681 C199.658993,86.6670562 199.791591,85.2376976 199.791591,83.6814496 C199.791591,82.1590331 199.65442,80.7381323 199.380075,79.4187047 C199.10573,78.099277 198.71708,76.9659395 198.214113,76.0186581 C197.711147,75.0713767 197.093879,74.3270953 196.362291,73.7857917 C195.630704,73.244488 194.80768,72.9738403 193.893195,72.9738403 L192.658647,72.9738403 L192.658647,94.389059 Z M187.490167,64.5163264 L195.446142,64.5163264 C196.854449,64.5163264 198.175859,65.0407064 199.410413,66.0894823 C200.644967,67.1382581 201.724043,68.5337856 202.647672,70.2761068 C203.571301,72.0184279 204.298306,74.0482862 204.828707,76.3657424 C205.359108,78.6831987 205.624304,81.1105709 205.624304,83.6479318 C205.624304,86.1514612 205.36368,88.5619178 204.842424,90.8793741 C204.321168,93.1968304 203.598736,95.2351464 202.675106,96.9943832 C201.751477,98.7536201 200.672402,100.157605 199.437847,101.206381 C198.203293,102.255157 196.872738,102.779537 195.446142,102.779537 L187.490167,102.779537 L187.490167,64.5163264 Z" id="path-1"></path>
        <filter x="-2.9%" y="-2.6%" width="105.8%" height="109.9%" filterUnits="objectBoundingBox" id="filter-2">
            <feMorphology radius="0.25" operator="dilate" in="SourceAlpha" result="shadowSpreadOuter1"></feMorphology>
            <feOffset dx="0" dy="2" in="shadowSpreadOuter1" result="shadowOffsetOuter1"></feOffset>
            <feGaussianBlur stdDeviation="1" in="shadowOffsetOuter1" result="shadowBlurOuter1"></feGaussianBlur>
            <feComposite in="shadowBlurOuter1" in2="SourceAlpha" operator="out" result="shadowBlurOuter1"></feComposite>
            <feColorMatrix values="0 0 0 0 0   0 0 0 0 0   0 0 0 0 0  0 0 0 0.5 0" type="matrix" in="shadowBlurOuter1"></feColorMatrix>
        </filter>
    </defs>
    <g id="Welcome" stroke="none" stroke-width="1" fill="none" fill-rule="evenodd">
        <g id="Mobile-Portrait-Copy-2" transform="translate(-83.000000, -17.000000)">
            <g id="COMMON-GOOD-Copy">
                <use fill="black" fill-opacity="1" filter="url(#filter-2)" xlink:href="#path-1"></use>
                <use fill="#8ABACF" fill-rule="evenodd" xlink:href="#path-1"></use>
            </g>
        </g>
    </g>
</svg>