<?xml version="1.0" encoding="UTF-8"?>
<svg width="320px" height="120px" viewBox="0 0 320 120" version="1.1" xmlns="http://www.w3.org/2000/svg" xmlns:xlink="http://www.w3.org/1999/xlink">
    <!-- Generator: Sketch 50.2 (55047) - http://www.bohemiancoding.com/sketch -->
    <title>shakehands</title>
    <desc>Created with Sketch.</desc>
    <defs></defs>
    <g id="Welcome" stroke="none" stroke-width="1" fill="none" fill-rule="evenodd">
        <g id="Mobile-Portrait-Copy-2" transform="translate(0.000000, -119.000000)">
            <g id="shakehands" transform="translate(0.000000, 119.000000)">
                <rect id="Rectangle-6" stroke="#979797" fill="#E0A894" x="0.5" y="0.5" width="319" height="119"></rect>
                <rect id="Rectangle-7" fill-opacity="0.431923687" fill="#D07D72" x="0" y="16" width="320" height="90"></rect>
                <path d="M32.5,104.5 L0,82 L0,0.5 L60.5,0.5 L86,12.5 C85.243583,24.535957 82.743583,34.2026237 78.5,41.5 C74.256417,48.7973763 58.9230837,69.7973763 32.5,104.5 Z" id="Path-13" stroke="#000000" fill="#8ABACF"></path>
                <path d="M49,83.5 C58.3333333,85.8333333 65.3333333,83.8333333 70,77.5 C77,68 79.436619,60.8313578 86,49 C90.3755873,41.1124282 92.7089206,30.4457615 93,17 L86,14.5 C85.1907275,25.216391 83.1907275,33.5497243 80,39.5 C76.8092725,45.4502757 66.4759391,60.1169423 49,83.5 Z" id="Path-27" stroke="#000000" fill="#D8D8D8"></path>
                <path d="M93,18.5 L113.5,27 L134,13 L143.5,13 L146.5,15.5 L136,24 L134,35.5 C131.712127,39.3148284 130.878793,41.9814951 131.5,43.5 C132.121207,45.0185049 134.45454,46.0185049 138.5,46.5 L151,42 L154.5,33.5 L162,31 L180,38 L193,43.5 L214.5,58 L219,67.5 L214.5,79.5 L205,81 L207.5,86.5 C206.828852,89.9649859 205.495518,92.4649859 203.5,94 C201.504482,95.5350141 198.504482,96.3683474 194.5,96.5 C194.615525,98.9063927 194.115525,100.906393 193,102.5 C191.884475,104.093607 190.051142,105.426941 187.5,106.5 L180,106.5 L173,113.5 L163.5,112 L159.5,109 L156,106.5 L157.5,98 C155.963361,95.5328826 154.463361,94.1995492 153,94 C151.536639,93.8004508 149.369972,94.6337841 146.5,96.5 L146.5,89.5 C144.597848,87.8136708 143.097848,86.8136708 142,86.5 C140.902152,86.1863292 138.902152,86.1863292 136,86.5 L131.5,92.5 C131.141693,88.5228481 130.141693,85.8561814 128.5,84.5 C126.858307,83.1438186 124.024973,82.6438186 120,83 L113.5,88 L98,77.5 L91.5,71.5 L76.5,67.5 C83.0923287,55.5193268 87.425662,46.3526601 89.5,40 C91.574338,33.6473399 92.7410047,26.4806732 93,18.5 Z" id="Path-28" stroke="#000000" fill="#E2BFBF"></path>
                <path d="M193.719045,17 L186.719045,17 C172.809568,12.4815569 163.903219,10.1482235 160,10 C154.145171,9.77766471 150.503769,13.1537685 147.219045,15.5 C145.029229,17.0641543 141.362562,20.230821 136.219045,25 L133.719045,36 C132.344438,38.3403309 131.511104,40.0069976 131.219045,41 C130.926985,41.9930024 130.926985,43.1596691 131.219045,44.5 L138.219045,46.5 L150.219045,42 L153.719045,34 L162.469045,31 L193.719045,44.5 L214.219045,58.5 L218.719045,68 L218.719045,61.5 L223.219045,58.5 C223.247487,57.896352 223.247487,57.396352 223.219045,57 C223.003407,53.9950204 222.523795,51.4102057 222,50 C219.32822,42.8068025 215.080666,37.630428 212.5,34 C210.25284,30.8387404 207.544867,25.789394 203,22 C201.324634,20.6031231 198.230983,18.9364564 193.719045,17 Z" id="Path-40" stroke="#000000" fill="#B19393"></path>
                <path d="M98,78.5 L98,88 L105,93 L110.5,93 L112,99 L120,104.5 L126,101.5 L129,107 L135.5,110 L140,107 L144.5,113 L151,114.5 L160,110 L156,107 L158,99 C156.939641,96.0883277 155.439641,94.421661 153.5,94 C151.560359,93.578339 149.227026,94.4116723 146.5,96.5 L146.5,89.5 L141.5,86 L135.5,86 L131.5,93 C130.014372,87.6423073 128.681039,84.4756406 127.5,83.5 C126.318961,82.5243594 123.818961,82.5243594 120,83.5 L113.5,88 L98,78.5 Z" id="Path-41" stroke="#000000" fill="#B19393"></path>
                <path d="M134,41 C136.021906,39.5147862 137.521906,38.5147862 138.5,38 C139.478094,37.4852138 140.978094,36.9062665 143,36.2631579 C142.81894,32.1303826 141.81894,30.5426633 140,31.5 C138.18106,32.4573367 136.18106,35.6240034 134,41 Z" id="Path-42" stroke="#000000" stroke-width="0.7" fill="#C1A3A3"></path>
                <path d="M120,86.5 C121.317832,88.4852036 122.415221,89.7993522 123.292167,90.4424459 C124.169113,91.0855396 125.571724,91.6047243 127.5,92 C123.720887,94.2286507 121.220887,94.8953174 120,94 C118.779113,93.1046826 118.779113,90.6046826 120,86.5 Z" id="Path-43" stroke="#000000" stroke-width="0.7" fill="#C1A3A3"></path>
                <path d="M137.5,89.5 C138.634532,91.2806902 139.604332,92.5116413 140.409401,93.1928533 C141.214469,93.8740653 142.411336,94.4764476 144,95 C140.574931,96.8256952 138.408265,97.3256952 137.5,96.5 C136.591735,95.6743048 136.591735,93.3409714 137.5,89.5 Z" id="Path-44" stroke="#000000" stroke-width="0.7" fill="#C1A3A3"></path>
                <path d="M147,104.5 C146.163562,103.747206 146.663562,101.580539 148.5,98 C148.902063,99.6961207 149.419959,100.829358 150.053687,101.399713 C150.687414,101.970068 151.836185,102.33683 153.5,102.5 C150.003105,104.586128 147.836438,105.252794 147,104.5 Z" id="Path-45" stroke="#000000" stroke-width="0.7" fill="#C1A3A3"></path>
                <path d="M194.5,17 C198.975053,14.2726924 202.475053,13.1060257 205,13.5 C205.722213,13.6126888 217.63542,16.4893241 228,32 C232.885437,39.3110948 239,54 239,60 C239,64 232.333333,66.8333333 219,68.5 L219,61.5 L223.5,58.5 C222.705473,53.2603762 221.872139,49.5937095 221,47.5 C217.846731,39.9300739 213.246331,34.6456114 210,30 C205.406851,23.427046 200.240185,19.0937127 194.5,17 Z" id="Path-46" stroke="#000000" fill="#D8D8D8"></path>
                <path d="M223,68.5 L240,86 L319.5,47 L319.5,0.5 L227.5,0.5 L191,16.5 L195.5,16.5 L205,13 C213.507882,16.8400047 219.507882,21.3400047 223,26.5 C225.677171,30.4558203 231.854479,37.5040903 236.5,49.5 C237.442749,51.9344172 238.109416,56.2677505 238.5,62.5 L223,68.5 Z" id="Path-47" stroke="#200000" fill="#EADFBC"></path>
                <polygon id="Path-48" stroke="#000000" fill-opacity="0.35" fill="#000000" points="205 81.5 192.5 69.5 187 62 202 69.5 205 78"></polygon>
                <polygon id="Path-49" stroke="#000000" fill-opacity="0.25" fill="#000000" points="178.5 80.5 182.5 86.5 194.5 96.5 184.5 85"></polygon>
                <polygon id="Path-50" stroke="#000000" fill-opacity="0.25" fill="#000000" points="178 104.5 167 94.5 165 97.5"></polygon>
                <path d="M113.5,88.5 L110.5,93" id="Path-51" stroke="#000000"></path>
                <path d="M131.5,93 L126,101" id="Path-52" stroke="#000000"></path>
                <path d="M146.5,96.5 L140,107" id="Path-53" stroke="#000000"></path>
                <polygon id="Path-54" fill-opacity="0.15" fill="#000000" points="154.5 34 153.5 23.5 163.5 20 174 22.5 166.5 26 198.5 37 194.5 44 162 31"></polygon>
                <path d="M83.5,54 L92.5,61.5 L100.5,57.75 L120.5,72 L128,77 L134.5,69 L130,65.5 L159,73 L153,77 L168,85 L175,80.5 L194.5,99.5 C192.385014,103.50166 190.551681,105.834994 189,106.5 C187.448319,107.165006 184.614986,106.831673 180.5,105.5 L167,94.5 L165,97.5 L179.5,105.5 L173,113 L163.5,111.5 L156.5,106.5 L158,98.5 C155.804556,96.1584447 154.13789,94.8251113 153,94.5 C151.86211,94.1748887 150.028777,94.508222 147.5,95.5 L144,86 L134.5,86 L131.5,91.5 C130.449317,87.216108 129.28265,84.5494413 128,83.5 C126.71735,82.4505587 124.21735,82.1172254 120.5,82.5 L113.5,87.5 L98,77 L92.5,72 L77,67.5 L83.5,54 Z" id="Path-55" fill-opacity="0.1" fill="#000000"></path>
                <path d="M201.5,21 L212.5,57 L218.5,65.5 L223,58.5 L221.5,49.5 L216,38.5 C212.862918,33.6793835 210.529584,30.3460502 209,28.5 C207.470416,26.6539498 204.970416,24.1539498 201.5,21 Z" id="Path-56" fill-opacity="0.1" fill="#000000"></path>
                <path d="M239,61.5 C239.564149,66.3729143 239.897483,70.039581 240,72.5 C240.102517,74.960419 240.102517,79.2937524 240,85.5 L223,68.5 C227.72206,67.3507653 231.055394,66.3507653 233,65.5 C234.944606,64.6492347 236.944606,63.3159014 239,61.5 Z" id="Path-57" stroke="#000000" fill-opacity="0.380066803" fill="#000000"></path>
                <polygon id="Path-58" fill-opacity="0.1" fill="#000000" points="134 45 134 41.5 145.5 36.5 152.5 36.5 150 41.5 138.5 46.5"></polygon>
                <path d="M98.5,79 C100.257349,83.5706693 102.424016,86.0706693 105,86.5 C114,88 116.016884,93.80688 119,95.5 C121.457758,96.8949436 125.599269,95.9554792 129,96.75 C130.564211,97.1154504 132.730878,98.1987837 135.5,100 C137.025007,102.806254 138.525007,104.639587 140,105.5 C141.474993,106.360413 143.974993,106.860413 147.5,107 L159.5,110 L151.5,114.5 L144.5,113 L140,107 L135.5,110 L129,107 L125.5,101.5 L120,104.5 L112,99 L110.5,93 L105,93 L98.5,88 L98.5,79 Z" id="Path-59" fill-opacity="0.15" fill="#000000"></path>
                <path d="M72,75 L59.5,70 L49.5,83 C51.2777778,84 53.2777778,84.5 55.5,84.5 C57.7222222,84.5 60.5555556,84 64,83 L72,75 Z" id="Path-60" fill-opacity="0.15" fill="#060000"></path>
                <polygon id="Path-61" fill-opacity="0.15" fill="#000000" points="32.5 104.5 50.5 81 0 47.5 0 82.5"></polygon>
                <path d="" id="Path-62" stroke="#979797"></path>
                <path d="M240,85.5 C240.302617,77.1006928 240.302617,70.9340262 240,67 C239.697383,63.0659738 238.864049,58.3993072 237.5,53 L319.5,18.5 L319.5,47 L240,85.5 Z" id="Path-63" fill-opacity="0.15" fill="#000000"></path>
                <path d="M223,53.5 L235.5,48 L237.5,53.5 L238.5,62.5 C234.253832,64.5309704 231.003832,65.8643037 228.75,66.5 C226.496168,67.1356963 223.246168,67.6356963 219,68 L219,61.5 L223,58 L223,53.5 Z" id="Path-2" fill-opacity="0.243716033" fill="#000000"></path>
                <path d="M186,61.5 L184,57 L204,66 L208,77 L206.5,80.5 L204.5,81 C204.611421,79.9456308 204.611421,79.1122974 204.5,78.5 C204.333835,77.5868658 203.659824,76.1126597 203.5,75.5 C203.179422,74.2711166 202.512755,72.2711166 201.5,69.5 L186,61.5 Z" id="Path-64" fill-opacity="0.15" fill="#000000"></path>
            </g>
        </g>
    </g>
</svg>